<?xml version="1.0" encoding="utf-8"?>
<!-- Generator: Adobe Illustrator 16.0.0, SVG Export Plug-In . SVG Version: 6.00 Build 0)  -->
<!DOCTYPE svg PUBLIC "-//W3C//DTD SVG 1.1//EN" "http://www.w3.org/Graphics/SVG/1.1/DTD/svg11.dtd">
<svg version="1.1" id="Capa_1" xmlns="http://www.w3.org/2000/svg" xmlns:xlink="http://www.w3.org/1999/xlink" x="0px" y="0px"
	 width="658.404px" height="152.836px" viewBox="0 0 658.404 152.836" enable-background="new 0 0 658.404 152.836"
	 xml:space="preserve">
<g>
	<g>
		<path fill-rule="evenodd" clip-rule="evenodd" fill="#FFFFFF" d="M304.48,0c0,14.124,0,28.249,0,42.38
			c5.579-4.525,14.709-11.629,29.666-9.183c38.366,6.291,31.917,86.905-15.558,79.113c-8.17-1.326-11.879-5.884-17.644-12.019
			c-0.083-0.879-0.083,10.478-0.083,10.478c-6.589,0-13.801,0.132-20.412,0.132C281.794,75.04,280.915,36.944,281.164,0
			C288.942,0,296.701,0,304.48,0z M317.183,93.943c24.138,2.486,24.918-47.02-0.691-42.378
			C298.21,54.89,300.771,92.268,317.183,93.943z"/>
		<path fill-rule="evenodd" clip-rule="evenodd" fill="#FFFFFF" d="M474.714,0c7.551,0,15.078,0,22.621,0
			c0,36.968,0,73.937,0,110.901c-7.775,0-15.534,0-23.325,0C474.49,74.177,473.081,35.542,474.714,0z"/>
		<path fill-rule="evenodd" clip-rule="evenodd" fill="#FFFFFF" d="M63.588,5.645c10.34,35.584,21.717,70.116,32.488,105.256
			c-8.48,0-16.951,0-25.431,0c-2.963-9.018-5.404-18.6-8.479-27.531c-9.648,0-19.296,0-28.965,0
			c-4.485,7.506-5.434,18.562-8.471,27.531c-8.243,0-16.487,0-24.73,0C11.538,76.283,20.743,39.332,33.201,5.645
			C43.322,5.645,53.456,5.645,63.588,5.645z M35.327,66.403c7.771,0,15.538,0,23.304,0c-3.883-14.48-7.717-29.02-12.001-43.103
			C43.508,38.328,39.501,52.444,35.327,66.403z"/>
		<path fill-rule="evenodd" clip-rule="evenodd" fill="#FFFFFF" d="M163.188,36.728c-0.493,6.324-3.025,10.626-3.531,16.951
			c-3.37-3.191-25.658-8.679-26.135,1.426c-0.415,8.521,17.415,9.283,24.729,14.82c2.881,2.18,6.188,6.366,7.054,8.488
			c12.409,29.886-30.594,42.385-55.809,28.957c0.783-5.819,2.996-10.196,3.543-16.246c5.152,1.359,28.622,11.174,31.079,0
			c2.201-9.984-15.081-10.515-21.899-14.833c-7.684-4.883-13.519-12.011-10.598-24.727
			C115.713,33.719,141.786,28.837,163.188,36.728z"/>
		<path fill-rule="evenodd" clip-rule="evenodd" fill="#FFFFFF" d="M214.052,33.91c22.758-3.199,37.23,7.667,42.394,16.942
			c7.336,13.196,6.826,27.113,2.106,38.862c-9.243,23.077-48.258,32.857-67.812,10.577C168.911,75.446,186.103,37.847,214.052,33.91
			z M225.355,95.368c16.329-4.377,16.3-48.395-5.641-45.22C197.566,53.347,203.227,101.286,225.355,95.368z"/>
		<path fill-rule="evenodd" clip-rule="evenodd" fill="#FFFFFF" d="M407.615,33.91c24.502-3.464,43.608,8.189,46.625,29.666
			c1.566,11.165-0.771,26.984-8.471,36.02c-18.179,21.303-61.131,14.258-69.23-12.727C368.342,59.664,384.737,37.109,407.615,33.91z
			 M413.965,96.081c20.813,0.911,22.811-48.916-0.696-45.933C393.251,52.685,394.958,95.251,413.965,96.081z"/>
		<path fill-rule="evenodd" clip-rule="evenodd" fill="#FFFFFF" d="M571.504,37.424c-1.758,4.84-2.463,10.718-4.235,15.566
			c-4.112-1.89-24.876-8.348-25.439,2.114c-0.48,9.117,20.888,10.178,27.568,17.655c2.122,2.396,4.468,6.921,4.932,9.184
			c6.342,30.682-32.965,36.335-57.227,25.427c1.419-5.653,2.827-11.29,4.253-16.96c5.479,4.244,30.669,10.875,31.084-0.696
			c0.215-6.701-8.621-7.34-14.838-9.875c-7.277-3.001-15.509-8.239-17.672-15.559C511.873,36.968,547.614,25.911,571.504,37.424z"/>
		<path fill-rule="evenodd" clip-rule="evenodd" fill="#FFFFFF" d="M658.404,110.901c-7.079,0-14.737-0.033-21.8-0.033
			c0,0,0-7.559-0.1-7.045c-4.359,0.631-6.092,5.188-11.307,7.078c-24.311,8.786-47.329-16.444-31.796-37.437
			c7.519-10.146,24.295-13.021,40.268-13.419c-0.82-17.324-25.729-10.138-35.327-5.662c-0.58-5.536-3.067-9.151-3.531-14.837
			c16.312-8.828,46.104-9.748,56.514,3.539C663.727,58.884,652.834,88.306,658.404,110.901z M612.484,90.411
			c2.817,9.616,19.735,5.637,21.898-2.818c0-4.223,0-8.482,0-12.702C621.452,73.812,609.102,78.935,612.484,90.411z"/>
	</g>
	<g>
		<path fill="#FFFFFF" d="M7.141,142.25l-1.77,5.802H1.509l6.568-20.474h4.775l6.652,20.474h-4.05l-1.848-5.802H7.141z
			 M12.997,139.432l-1.604-5.057c-0.402-1.228-0.733-2.636-1.04-3.812H10.29c-0.29,1.177-0.642,2.618-0.961,3.812l-1.579,5.057
			H12.997z"/>
		<path fill="#FFFFFF" d="M21.941,144.587c0.808,0.514,2.437,1.094,3.758,1.094c1.633,0,2.379-0.713,2.379-1.674
			c0-0.995-0.621-1.491-2.44-2.155c-2.889-0.979-4.07-2.554-4.07-4.311c0-2.602,2.159-4.608,5.591-4.608
			c1.641,0,3.066,0.382,3.945,0.879l-0.767,2.603c-0.597-0.365-1.807-0.846-3.117-0.846c-1.343,0-2.055,0.663-2.055,1.575
			c0,0.944,0.692,1.359,2.569,2.072c2.707,0.928,3.917,2.305,3.946,4.492c0,2.686-2.093,4.642-6.001,4.642
			c-1.794,0-3.407-0.43-4.493-1.027L21.941,144.587z"/>
		<path fill="#FFFFFF" d="M48.809,140.526c0,5.422-3.821,7.842-7.572,7.842c-4.174,0-7.418-2.835-7.418-7.61
			c0-4.856,3.195-7.824,7.646-7.824C45.883,132.933,48.809,136.017,48.809,140.526z M37.673,140.675
			c0,2.835,1.438,5.006,3.667,5.006c2.126,0,3.626-2.071,3.626-5.071c0-2.305-1.044-4.974-3.584-4.974
			C38.738,135.636,37.673,138.222,37.673,140.675z"/>
		<path fill="#FFFFFF" d="M62.764,147.588c-0.783,0.364-2.334,0.762-4.194,0.762c-4.604,0-7.601-2.967-7.601-7.559
			c0-4.426,3.025-7.858,8.21-7.858c1.375,0,2.76,0.299,3.605,0.647l-0.659,2.834c-0.601-0.299-1.488-0.58-2.831-0.58
			c-2.831,0-4.546,2.104-4.518,4.808c0,3.034,1.977,4.758,4.518,4.758c1.28,0,2.23-0.265,2.951-0.563L62.764,147.588z"/>
		<path fill="#FFFFFF" d="M69.519,129.12c0,1.111-0.824,2.007-2.125,2.007c-1.252,0-2.068-0.896-2.068-2.007
			c0-1.143,0.849-2.021,2.089-2.021C68.694,127.098,69.478,127.977,69.519,129.12z M65.532,148.052v-14.788h3.739v14.788H65.532z"/>
		<path fill="#FFFFFF" d="M84.787,144.504c0,1.31,0.062,2.636,0.249,3.548h-3.37l-0.27-1.658h-0.079
			c-0.899,1.161-2.441,1.974-4.381,1.974c-2.988,0-4.65-2.139-4.65-4.393c0-3.715,3.307-5.604,8.761-5.588v-0.249
			c0-0.961-0.373-2.569-2.997-2.569c-1.446,0-2.976,0.448-3.979,1.094l-0.733-2.419c1.098-0.681,3.009-1.311,5.35-1.311
			c4.733,0,6.097,2.984,6.097,6.249V144.504z M81.152,140.825c-2.645-0.033-5.168,0.497-5.168,2.768
			c0,1.443,0.954,2.123,2.131,2.123c1.508,0,2.582-0.979,2.934-2.039c0.104-0.281,0.104-0.548,0.104-0.83V140.825z"/>
		<path fill="#FFFFFF" d="M99.62,147.588c-0.783,0.364-2.345,0.762-4.194,0.762c-4.617,0-7.622-2.967-7.622-7.559
			c0-4.426,3.038-7.858,8.244-7.858c1.363,0,2.756,0.299,3.606,0.647l-0.672,2.834c-0.601-0.299-1.488-0.58-2.822-0.58
			c-2.852,0-4.555,2.104-4.526,4.808c0,3.034,1.985,4.758,4.526,4.758c1.272,0,2.221-0.265,2.943-0.563L99.62,147.588z"/>
		<path fill="#FFFFFF" d="M106.375,129.12c0,1.111-0.825,2.007-2.126,2.007c-1.239,0-2.076-0.896-2.076-2.007
			c0-1.143,0.857-2.021,2.105-2.021C105.551,127.098,106.334,127.977,106.375,129.12z M102.397,148.052v-14.788h3.73v14.788H102.397
			z"/>
		<path fill="#FFFFFF" d="M124.226,140.526c0,5.422-3.822,7.842-7.581,7.842c-4.165,0-7.41-2.835-7.41-7.61
			c0-4.856,3.195-7.824,7.655-7.824C121.283,132.933,124.226,136.017,124.226,140.526z M113.089,140.675
			c0,2.835,1.426,5.006,3.676,5.006c2.109,0,3.618-2.071,3.618-5.071c0-2.305-1.032-4.974-3.598-4.974
			C114.155,135.636,113.089,138.222,113.089,140.675z M121.167,126.85l-3.696,4.492h-2.582l2.644-4.492H121.167z"/>
		<path fill="#FFFFFF" d="M127.313,137.658c0-1.691-0.062-3.133-0.133-4.394h3.253l0.174,2.205h0.103
			c0.664-1.144,2.276-2.536,4.733-2.536c2.582,0,5.248,1.658,5.248,6.333v8.786h-3.718v-8.354c0-2.14-0.796-3.731-2.831-3.731
			c-1.5,0-2.52,1.062-2.914,2.172c-0.124,0.316-0.187,0.78-0.187,1.193v8.721h-3.73V137.658z"/>
		<path fill="#FFFFFF" d="M164.613,126.485v17.406c0,1.509,0.062,3.166,0.125,4.161h-3.316l-0.174-2.337h-0.075
			c-0.878,1.641-2.673,2.652-4.783,2.652c-3.572,0-6.349-2.984-6.349-7.543c-0.042-4.957,3.067-7.892,6.61-7.892
			c2.035,0,3.503,0.812,4.162,1.906h0.062v-8.354H164.613z M160.875,139.432c0-0.299-0.021-0.714-0.091-1.012
			c-0.332-1.426-1.529-2.604-3.216-2.604c-2.396,0-3.738,2.122-3.738,4.858c0,2.72,1.342,4.708,3.696,4.708
			c1.529,0,2.852-1.044,3.224-2.669c0.104-0.314,0.125-0.68,0.125-1.061V139.432z"/>
		<path fill="#FFFFFF" d="M171.266,141.704c0.103,2.669,2.171,3.829,4.566,3.829c1.716,0,2.935-0.299,4.104-0.68l0.547,2.553
			c-1.281,0.547-3.038,0.944-5.168,0.944c-4.799,0-7.621-2.95-7.621-7.477c0-4.095,2.479-7.94,7.219-7.94
			c4.795,0,6.375,3.946,6.375,7.178c0,0.714-0.05,1.244-0.112,1.593H171.266z M177.776,139.083c0.021-1.359-0.588-3.614-3.08-3.614
			c-2.292,0-3.266,2.089-3.431,3.614H177.776z"/>
		<path fill="#FFFFFF" d="M205.416,147.457c-0.887,0.446-2.831,0.911-5.317,0.911c-6.499,0-10.444-4.062-10.444-10.312
			c0-6.73,4.708-10.808,10.97-10.808c2.458,0,4.194,0.514,4.949,0.911l-0.796,2.968c-0.97-0.415-2.333-0.796-4.008-0.796
			c-4.153,0-7.17,2.619-7.17,7.543c0,4.526,2.624,7.36,7.137,7.36c1.488,0,3.071-0.299,4.083-0.713L205.416,147.457z"/>
		<path fill="#FFFFFF" d="M222.026,140.526c0,5.422-3.8,7.842-7.58,7.842c-4.153,0-7.419-2.835-7.419-7.61
			c0-4.856,3.204-7.824,7.667-7.824C219.092,132.933,222.026,136.017,222.026,140.526z M210.89,140.675
			c0,2.835,1.426,5.006,3.68,5.006c2.118,0,3.606-2.071,3.606-5.071c0-2.305-1.023-4.974-3.584-4.974
			C211.947,135.636,210.89,138.222,210.89,140.675z"/>
		<path fill="#FFFFFF" d="M225.114,137.658c0-1.691-0.062-3.133-0.133-4.394h3.204l0.174,2.188h0.091
			c0.705-1.16,2.048-2.52,4.559-2.52c1.953,0,3.469,1.094,4.099,2.719h0.062c0.519-0.812,1.115-1.408,1.786-1.84
			c0.858-0.58,1.799-0.879,3.051-0.879c2.424,0,4.915,1.658,4.915,6.398v8.721h-3.647v-8.174c0-2.469-0.857-3.912-2.636-3.912
			c-1.281,0-2.229,0.913-2.623,1.973c-0.121,0.332-0.174,0.812-0.174,1.243v8.87h-3.647v-8.571c0-2.071-0.824-3.515-2.562-3.515
			c-1.384,0-2.333,1.078-2.693,2.089c-0.116,0.399-0.179,0.83-0.179,1.243v8.754h-3.646V137.658z"/>
		<path fill="#FFFFFF" d="M254.854,129.12c0,1.111-0.816,2.007-2.126,2.007c-1.239,0-2.067-0.896-2.067-2.007
			c0-1.143,0.857-2.021,2.109-2.021C254.038,127.098,254.834,127.977,254.854,129.12z M250.876,148.052v-14.788h3.742v14.788
			H250.876z"/>
		<path fill="#FFFFFF" d="M258.51,144.587c0.816,0.514,2.42,1.094,3.763,1.094c1.641,0,2.354-0.713,2.354-1.674
			c0-0.995-0.588-1.491-2.416-2.155c-2.884-0.979-4.069-2.554-4.069-4.311c0-2.602,2.146-4.608,5.586-4.608
			c1.642,0,3.067,0.382,3.938,0.879l-0.746,2.603c-0.596-0.365-1.819-0.846-3.12-0.846c-1.343,0-2.064,0.663-2.064,1.575
			c0,0.944,0.692,1.359,2.574,2.072c2.694,0.928,3.913,2.305,3.954,4.492c0,2.686-2.105,4.642-6.01,4.642
			c-1.79,0-3.411-0.43-4.505-1.027L258.51,144.587z"/>
		<path fill="#FFFFFF" d="M275.307,129.12c0,1.111-0.824,2.007-2.125,2.007c-1.244,0-2.068-0.896-2.068-2.007
			c0-1.143,0.857-2.021,2.097-2.021C274.483,127.098,275.287,127.977,275.307,129.12z M271.329,148.052v-14.788h3.73v14.788H271.329
			z"/>
		<path fill="#FFFFFF" d="M293.167,140.526c0,5.422-3.83,7.842-7.593,7.842c-4.169,0-7.414-2.835-7.414-7.61
			c0-4.856,3.204-7.824,7.663-7.824C290.223,132.933,293.167,136.017,293.167,140.526z M282.022,140.675
			c0,2.835,1.426,5.006,3.676,5.006c2.13,0,3.618-2.071,3.618-5.071c0-2.305-1.032-4.974-3.597-4.974
			C283.086,135.636,282.022,138.222,282.022,140.675z"/>
		<path fill="#FFFFFF" d="M296.237,137.658c0-1.691-0.062-3.133-0.116-4.394h3.245l0.187,2.205h0.091
			c0.672-1.144,2.275-2.536,4.741-2.536c2.582,0,5.247,1.658,5.247,6.333v8.786h-3.726v-8.354c0-2.14-0.788-3.731-2.831-3.731
			c-1.488,0-2.524,1.062-2.913,2.172c-0.125,0.316-0.187,0.78-0.187,1.193v8.721h-3.738V137.658z"/>
		<path fill="#FFFFFF" d="M317.598,129.12c0,1.111-0.825,2.007-2.126,2.007c-1.243,0-2.056-0.896-2.056-2.007
			c0-1.143,0.846-2.021,2.098-2.021C316.772,127.098,317.576,127.977,317.598,129.12z M313.631,148.052v-14.788h3.739v14.788
			H313.631z"/>
		<path fill="#FFFFFF" d="M321.253,144.587c0.829,0.514,2.416,1.094,3.759,1.094c1.633,0,2.379-0.713,2.379-1.674
			c0-0.995-0.609-1.491-2.437-2.155c-2.872-0.979-4.07-2.554-4.07-4.311c0-2.602,2.168-4.608,5.596-4.608
			c1.633,0,3.058,0.382,3.949,0.879l-0.767,2.603c-0.609-0.365-1.819-0.846-3.142-0.846s-2.043,0.663-2.043,1.575
			c0,0.944,0.68,1.359,2.561,2.072c2.72,0.928,3.925,2.305,3.958,4.492c0,2.686-2.097,4.642-6.001,4.642
			c-1.798,0-3.411-0.43-4.505-1.027L321.253,144.587z"/>
		<path fill="#FFFFFF" d="M338.353,129.468v3.796h3.565v2.785h-3.565v6.533c0,1.822,0.481,2.718,1.907,2.718
			c0.672,0,1.036-0.017,1.467-0.133l0.058,2.818c-0.547,0.216-1.558,0.382-2.701,0.382c-1.393,0-2.521-0.447-3.222-1.21
			c-0.816-0.846-1.181-2.223-1.181-4.146v-6.963h-2.096v-2.785h2.096v-2.768L338.353,129.468z"/>
		<path fill="#FFFFFF" d="M356.231,144.504c0,1.31,0.042,2.636,0.225,3.548h-3.365l-0.266-1.658h-0.107
			c-0.879,1.161-2.412,1.974-4.368,1.974c-2.968,0-4.642-2.139-4.642-4.393c0-3.715,3.307-5.604,8.77-5.588v-0.249
			c0-0.961-0.397-2.569-3.001-2.569c-1.458,0-2.983,0.448-3.995,1.094l-0.712-2.419c1.094-0.681,3-1.311,5.345-1.311
			c4.733,0,6.117,2.984,6.117,6.249V144.504z M352.576,140.825c-2.651-0.033-5.171,0.497-5.171,2.768
			c0,1.443,0.944,2.123,2.138,2.123c1.509,0,2.578-0.979,2.935-2.039c0.099-0.281,0.099-0.548,0.099-0.83V140.825z"/>
		<path fill="#FFFFFF" d="M360.036,144.587c0.797,0.514,2.412,1.094,3.756,1.094c1.633,0,2.354-0.713,2.354-1.674
			c0-0.995-0.604-1.491-2.412-2.155c-2.9-0.979-4.078-2.554-4.078-4.311c0-2.602,2.155-4.608,5.587-4.608
			c1.641,0,3.075,0.382,3.954,0.879l-0.754,2.603c-0.622-0.365-1.825-0.846-3.142-0.846c-1.318,0-2.064,0.663-2.064,1.575
			c0,0.944,0.712,1.359,2.586,2.072c2.702,0.928,3.921,2.305,3.945,4.492c0,2.686-2.088,4.642-6.018,4.642
			c-1.79,0-3.382-0.43-4.484-1.027L360.036,144.587z"/>
		<path fill="#FFFFFF" d="M392.762,126.485v17.406c0,1.509,0.065,3.166,0.116,4.161h-3.3l-0.19-2.337h-0.049
			c-0.888,1.641-2.678,2.652-4.8,2.652c-3.564,0-6.35-2.984-6.35-7.543c-0.033-4.957,3.059-7.892,6.623-7.892
			c2.031,0,3.489,0.812,4.169,1.906h0.05v-8.354H392.762z M389.031,139.432c0-0.299-0.033-0.714-0.099-1.012
			c-0.332-1.426-1.518-2.604-3.217-2.604c-2.404,0-3.723,2.122-3.723,4.858c0,2.72,1.318,4.708,3.697,4.708
			c1.509,0,2.852-1.044,3.225-2.669c0.083-0.314,0.116-0.68,0.116-1.061V139.432z"/>
		<path fill="#FFFFFF" d="M399.426,141.704c0.083,2.669,2.155,3.829,4.551,3.829c1.731,0,2.95-0.299,4.104-0.68l0.547,2.553
			c-1.276,0.547-3.042,0.944-5.173,0.944c-4.791,0-7.626-2.95-7.626-7.477c0-4.095,2.504-7.94,7.236-7.94
			c4.799,0,6.391,3.946,6.391,7.178c0,0.714-0.066,1.244-0.132,1.593H399.426z M405.916,139.083
			c0.042-1.359-0.572-3.614-3.059-3.614c-2.313,0-3.282,2.089-3.432,3.614H405.916z"/>
		<path fill="#FFFFFF" d="M418.912,127.876c1.178-0.248,3.325-0.446,5.454-0.446c2.744,0,4.461,0.348,5.828,1.309
			c1.276,0.747,2.139,2.089,2.139,3.847c0,1.89-1.194,3.58-3.398,4.409v0.1c2.155,0.53,4.119,2.237,4.119,5.023
			c0,1.822-0.787,3.266-1.948,4.26c-1.45,1.244-3.846,1.891-7.609,1.891c-2.062,0-3.613-0.166-4.584-0.282V127.876z M422.61,135.966
			h1.914c2.603,0,4.028-1.226,4.028-2.95c0-1.939-1.442-2.834-3.812-2.834c-1.095,0-1.74,0.065-2.13,0.148V135.966z M422.61,145.35
			c0.488,0.083,1.118,0.083,1.973,0.083c2.395,0,4.55-0.878,4.55-3.398c0-2.404-2.089-3.365-4.675-3.365h-1.848V145.35z"/>
		<path fill="#FFFFFF" d="M450.453,140.526c0,5.422-3.813,7.842-7.577,7.842c-4.161,0-7.419-2.835-7.419-7.61
			c0-4.856,3.191-7.824,7.668-7.824C447.518,132.933,450.453,136.017,450.453,140.526z M439.329,140.675
			c0,2.835,1.408,5.006,3.662,5.006c2.14,0,3.615-2.071,3.615-5.071c0-2.305-1.028-4.974-3.581-4.974
			C440.373,135.636,439.329,138.222,439.329,140.675z"/>
		<path fill="#FFFFFF" d="M453.535,126.485h3.738v21.567h-3.738V126.485z"/>
		<path fill="#FFFFFF" d="M461.194,144.587c0.828,0.514,2.437,1.094,3.78,1.094c1.624,0,2.362-0.713,2.362-1.674
			c0-0.995-0.605-1.491-2.437-2.155c-2.878-0.979-4.062-2.554-4.062-4.311c0-2.602,2.146-4.608,5.577-4.608
			c1.643,0,3.084,0.382,3.946,0.879l-0.755,2.603c-0.597-0.365-1.814-0.846-3.124-0.846c-1.335,0-2.056,0.663-2.056,1.575
			c0,0.944,0.688,1.359,2.569,2.072c2.693,0.928,3.912,2.305,3.945,4.492c0,2.686-2.089,4.642-6.018,4.642
			c-1.782,0-3.398-0.43-4.492-1.027L461.194,144.587z"/>
		<path fill="#FFFFFF" d="M485.498,144.504c0,1.31,0.065,2.636,0.248,3.548h-3.365l-0.281-1.658H482
			c-0.88,1.161-2.42,1.974-4.36,1.974c-2.984,0-4.658-2.139-4.658-4.393c0-3.715,3.315-5.604,8.786-5.588v-0.249
			c0-0.961-0.397-2.569-3-2.569c-1.477,0-2.985,0.448-3.996,1.094l-0.721-2.419c1.094-0.681,3.017-1.311,5.347-1.311
			c4.74,0,6.101,2.984,6.101,6.249V144.504z M481.858,140.825c-2.644-0.033-5.164,0.497-5.164,2.768
			c0,1.443,0.945,2.123,2.131,2.123c1.5,0,2.578-0.979,2.942-2.039c0.091-0.281,0.091-0.548,0.091-0.83V140.825z"/>
		<path fill="#FFFFFF" d="M509.378,126.485v17.406c0,1.509,0.059,3.166,0.124,4.161h-3.332l-0.157-2.337h-0.058
			c-0.896,1.641-2.687,2.652-4.809,2.652c-3.556,0-6.333-2.984-6.333-7.543c-0.041-4.957,3.06-7.892,6.615-7.892
			c2.031,0,3.482,0.812,4.145,1.906h0.067v-8.354H509.378z M505.641,139.432c0-0.299-0.034-0.714-0.084-1.012
			c-0.349-1.426-1.517-2.604-3.224-2.604c-2.396,0-3.722,2.122-3.722,4.858c0,2.72,1.325,4.708,3.696,4.708
			c1.508,0,2.852-1.044,3.217-2.669c0.082-0.314,0.116-0.68,0.116-1.061V139.432z"/>
		<path fill="#FFFFFF" d="M516.033,141.704c0.101,2.669,2.172,3.829,4.56,3.829c1.725,0,2.935-0.299,4.104-0.68l0.538,2.553
			c-1.276,0.547-3.025,0.944-5.155,0.944c-4.791,0-7.626-2.95-7.626-7.477c0-4.095,2.495-7.94,7.236-7.94
			c4.791,0,6.374,3.946,6.374,7.178c0,0.714-0.075,1.244-0.133,1.593H516.033z M522.532,139.083
			c0.024-1.359-0.571-3.614-3.066-3.614c-2.305,0-3.266,2.089-3.433,3.614H522.532z"/>
		<path fill="#FFFFFF" d="M550.184,147.457c-0.87,0.446-2.817,0.911-5.312,0.911c-6.491,0-10.437-4.062-10.437-10.312
			c0-6.73,4.692-10.808,10.958-10.808c2.453,0,4.194,0.514,4.932,0.911l-0.787,2.968c-0.971-0.415-2.338-0.796-4.004-0.796
			c-4.152,0-7.153,2.619-7.153,7.543c0,4.526,2.604,7.36,7.129,7.36c1.491,0,3.058-0.299,4.078-0.713L550.184,147.457z"/>
		<path fill="#FFFFFF" d="M566.795,140.526c0,5.422-3.829,7.842-7.576,7.842c-4.161,0-7.41-2.835-7.41-7.61
			c0-4.856,3.184-7.824,7.643-7.824C563.861,132.933,566.795,136.017,566.795,140.526z M555.655,140.675
			c0,2.835,1.426,5.006,3.68,5.006c2.122,0,3.613-2.071,3.613-5.071c0-2.305-1.026-4.974-3.58-4.974
			C556.732,135.636,555.655,138.222,555.655,140.675z"/>
		<path fill="#FFFFFF" d="M569.896,126.485h3.722v21.567h-3.722V126.485z"/>
		<path fill="#FFFFFF" d="M591.745,140.526c0,5.422-3.821,7.842-7.576,7.842c-4.161,0-7.419-2.835-7.419-7.61
			c0-4.856,3.191-7.824,7.644-7.824C588.803,132.933,591.745,136.017,591.745,140.526z M580.613,140.675
			c0,2.835,1.426,5.006,3.671,5.006c2.14,0,3.598-2.071,3.598-5.071c0-2.305-1.027-4.974-3.572-4.974
			C581.666,135.636,580.613,138.222,580.613,140.675z"/>
		<path fill="#FFFFFF" d="M594.828,137.658c0-1.691-0.066-3.133-0.133-4.394h3.208l0.166,2.188h0.091
			c0.705-1.16,2.04-2.52,4.56-2.52c1.939,0,3.464,1.094,4.095,2.719h0.049c0.522-0.812,1.145-1.408,1.808-1.84
			c0.854-0.58,1.79-0.879,3.051-0.879c2.411,0,4.906,1.658,4.906,6.398v8.721h-3.647v-8.174c0-2.469-0.845-3.912-2.636-3.912
			c-1.276,0-2.212,0.913-2.603,1.973c-0.132,0.332-0.189,0.812-0.189,1.243v8.87h-3.648v-8.571c0-2.071-0.82-3.515-2.544-3.515
			c-1.41,0-2.338,1.078-2.702,2.089c-0.134,0.399-0.175,0.83-0.175,1.243v8.754h-3.655V137.658z"/>
		<path fill="#FFFFFF" d="M620.59,126.485h3.738v8.803h0.059c0.912-1.426,2.52-2.354,4.732-2.354c3.622,0,6.2,2.984,6.168,7.494
			c0,5.32-3.365,7.94-6.715,7.94c-1.914,0-3.605-0.714-4.657-2.554h-0.075l-0.199,2.238h-3.175c0.058-0.995,0.124-2.652,0.124-4.161
			V126.485z M624.328,141.952c0,0.299,0.042,0.597,0.092,0.879c0.397,1.509,1.69,2.603,3.315,2.603c2.337,0,3.747-1.841,3.747-4.858
			c0-2.602-1.228-4.74-3.73-4.74c-1.509,0-2.909,1.111-3.299,2.735c-0.066,0.265-0.125,0.612-0.125,0.979V141.952z"/>
		<path fill="#FFFFFF" d="M642.34,129.12c0,1.111-0.828,2.007-2.121,2.007c-1.244,0-2.072-0.896-2.072-2.007
			c0-1.143,0.861-2.021,2.104-2.021C641.512,127.098,642.323,127.977,642.34,129.12z M638.362,148.052v-14.788h3.729v14.788H638.362
			z"/>
		<path fill="#FFFFFF" d="M657.625,144.504c0,1.31,0.059,2.636,0.248,3.548h-3.372l-0.274-1.658h-0.083
			c-0.896,1.161-2.437,1.974-4.385,1.974c-2.975,0-4.65-2.139-4.65-4.393c0-3.715,3.316-5.604,8.786-5.588v-0.249
			c0-0.961-0.397-2.569-3.017-2.569c-1.451,0-2.968,0.448-3.971,1.094l-0.721-2.419c1.077-0.681,2.992-1.311,5.329-1.311
			c4.742,0,6.109,2.984,6.109,6.249V144.504z M653.979,140.825c-2.637-0.033-5.147,0.497-5.147,2.768
			c0,1.443,0.928,2.123,2.104,2.123c1.518,0,2.595-0.979,2.959-2.039c0.084-0.281,0.084-0.548,0.084-0.83V140.825z"/>
	</g>
</g>
<g>
</g>
<g>
</g>
<g>
</g>
<g>
</g>
<g>
</g>
<g>
</g>
</svg>
