<?xml version="1.0" encoding="utf-8"?>
<!-- Generator: Adobe Illustrator 16.0.0, SVG Export Plug-In . SVG Version: 6.00 Build 0)  -->
<!DOCTYPE svg PUBLIC "-//W3C//DTD SVG 1.1//EN" "http://www.w3.org/Graphics/SVG/1.1/DTD/svg11.dtd">
<svg version="1.1" id="Capa_1" xmlns="http://www.w3.org/2000/svg" xmlns:xlink="http://www.w3.org/1999/xlink" x="0px" y="0px"
	 width="116.17px" height="86.472px" viewBox="0 0 116.17 86.472" enable-background="new 0 0 116.17 86.472" xml:space="preserve">
<g>
	<path fill="#FFFFFF" d="M0.002,6.175v39.649C0.002,45.83,0,45.834,0,45.84c0,0.005,0.002,0.011,0.002,0.017v0.051v-0.001
		c0.036,13.927,10.933,24.805,24.87,24.805c10.165,0,18.959-5.603,22.966-14.257l5.95,8.71c0,0,2.66,4.743,6.376,4.743
		c4.327,0,5.994-2.99,6.974-4.503c0.281-0.436,2.935-3.921,6.57-9.237c3.945,9.026,12.931,14.494,23.451,14.494
		c6.287,0,11.88-1.936,16.268-5.738c1.609-1.463,2.743-3.218,2.743-4.826c0-3.51-2.117-5.627-5.628-5.627
		c-1.462,0-3.474,1.393-4.937,2.562c-2.34,1.755-5.23,2.778-8.446,2.778c-7.021,0-13.937-6.915-13.937-13.935
		c0-7.02,6.916-13.936,13.937-13.936c3.216,0,5.994,1.023,8.334,3.072c1.464,1.17,2.779,2.416,4.242,2.416
		c3.51,0,6.435-2.117,6.435-5.626c0-1.756-1.393-3.511-3.146-4.973c-4.389-3.803-9.577-5.335-15.864-5.335
		c-9.354,0-18.057,5.427-22.521,12.871L60.48,55.241c0,0-11.253-17.987-14.411-22.473C40.955,25.5,35.1,21.953,28.208,21.511
		c-5.98-0.384-7.983,2.086-7.764,6.048c0.226,4.081,6.827,4.879,7.947,5.19c5.562,1.539,10.047,7.041,10.047,13.091
		c0,7.271-6.297,13.568-13.568,13.568c-7.271,0-13.568-6.298-13.568-13.568c0,0,0.071-36.828,0.071-39.665
		C11.374,3.337,10.423,0,5.767,0C1.111,0,0.002,3.85,0.002,6.175"/>
	<g>
		<path fill="#FFFFFF" d="M6.722,81.63c0,0.689-0.251,1.146-0.771,1.396v0.026c0.637,0.188,1.004,0.726,1.004,1.558
			c0,1.119-0.789,1.729-1.937,1.729H2.427c-0.17,0-0.234-0.063-0.234-0.233v-5.89c0-0.171,0.063-0.233,0.234-0.233h2.51
			C6.059,79.982,6.722,80.564,6.722,81.63z M4.839,80.788H3.063v1.925h1.776c0.646,0,0.995-0.313,0.995-0.958
			S5.485,80.788,4.839,80.788z M4.991,83.501H3.063v2.031h1.928c0.673,0,1.041-0.34,1.041-1.012
			C6.032,83.858,5.664,83.501,4.991,83.501z"/>
		<path fill="#FFFFFF" d="M9.69,81.585c1.292,0,2.018,0.653,2.018,1.719v1.459c0,1.056-0.727,1.709-2.018,1.709
			c-1.264,0-2.009-0.653-2.009-1.709v-1.459C7.682,82.238,8.426,81.585,9.69,81.585z M9.69,82.31c-0.753,0-1.21,0.367-1.21,0.985
			v1.468c0,0.617,0.458,0.984,1.21,0.984c0.763,0,1.22-0.367,1.22-0.984v-1.468C10.91,82.677,10.453,82.31,9.69,82.31z"/>
		<path fill="#FFFFFF" d="M13.233,86.339h-0.368c-0.162,0-0.216-0.055-0.216-0.216v-6.194c0-0.161,0.054-0.215,0.216-0.215h0.368
			c0.161,0,0.215,0.054,0.215,0.215v6.194C13.448,86.284,13.395,86.339,13.233,86.339z"/>
		<path fill="#FFFFFF" d="M16.156,81.585c1.04,0,1.605,0.385,1.874,0.967c0.081,0.161,0.036,0.251-0.107,0.312l-0.305,0.126
			c-0.161,0.072-0.206,0.045-0.296-0.098c-0.17-0.351-0.458-0.583-1.148-0.583c-0.69,0-1.022,0.215-1.022,0.645
			c0,0.573,0.476,0.646,1.22,0.708c1.022,0.099,1.775,0.322,1.775,1.378c0,0.851-0.619,1.432-1.874,1.432
			c-1.022,0-1.686-0.366-1.964-1.101c-0.063-0.143-0.027-0.232,0.134-0.286l0.305-0.107c0.143-0.045,0.215-0.026,0.287,0.135
			c0.179,0.465,0.583,0.645,1.211,0.645c0.762,0,1.121-0.242,1.121-0.681c0-0.537-0.439-0.636-1.193-0.707
			c-0.896-0.09-1.82-0.242-1.82-1.396C14.354,82.14,14.963,81.585,16.156,81.585z"/>
		<path fill="#FFFFFF" d="M20.686,81.585c1.452,0,1.855,0.796,1.855,1.809v2.336c0,0.313-0.071,0.403-0.323,0.51
			c-0.332,0.144-0.843,0.232-1.542,0.232c-1.578,0-1.964-0.509-1.964-1.423c0-1.047,0.574-1.405,2-1.405
			c0.439,0,0.87,0.045,1.022,0.062v-0.34c0-0.635-0.225-1.065-1.067-1.065c-0.538,0-0.897,0.188-1.112,0.546
			c-0.098,0.144-0.134,0.17-0.296,0.107l-0.278-0.125c-0.153-0.062-0.197-0.143-0.117-0.305
			C19.169,81.935,19.77,81.585,20.686,81.585z M20.623,84.298c-0.843,0-1.103,0.241-1.103,0.751c0,0.466,0.188,0.753,1.085,0.753
			c0.484,0,0.789-0.037,0.995-0.108c0.108-0.045,0.135-0.071,0.135-0.197v-1.127C21.555,84.351,21.062,84.298,20.623,84.298z"/>
		<path fill="#FFFFFF" d="M27.178,81.585c0.556,0,1.023,0.135,1.255,0.197v-1.854c0-0.161,0.054-0.215,0.215-0.215h0.377
			c0.152,0,0.206,0.054,0.206,0.215v5.774c0,0.294-0.062,0.375-0.35,0.492c-0.35,0.134-0.843,0.276-1.605,0.276
			c-1.318,0-1.919-0.653-1.919-1.799v-1.262C25.357,82.247,25.958,81.585,27.178,81.585z M27.331,82.319
			c-0.807,0-1.166,0.384-1.166,1.119v1.208c0,0.716,0.395,1.092,1.184,1.092c0.395,0,0.727-0.062,0.959-0.144
			c0.116-0.044,0.125-0.071,0.125-0.17v-2.909C28.227,82.453,27.833,82.319,27.331,82.319z"/>
		<path fill="#FFFFFF" d="M32.137,81.585c1.38,0,2.026,0.796,2.026,1.854v0.519c0,0.188-0.081,0.313-0.332,0.313h-2.923v0.43
			c0,0.68,0.413,1.074,1.202,1.074c0.636,0,1.022-0.242,1.247-0.617c0.107-0.152,0.188-0.171,0.349-0.081l0.243,0.125
			c0.161,0.081,0.179,0.197,0.081,0.35c-0.314,0.546-0.897,0.921-1.929,0.921c-1.398,0-1.99-0.769-1.99-1.861v-1.109
			C30.11,82.292,30.81,81.585,32.137,81.585z M32.137,82.266c-0.807,0-1.229,0.429-1.229,1.128v0.259h2.457v-0.259
			C33.365,82.694,32.953,82.266,32.137,82.266z"/>
		<path fill="#FFFFFF" d="M41.965,80.216l-2.241,5.925c-0.054,0.161-0.126,0.198-0.288,0.198h-0.367
			c-0.162,0-0.242-0.037-0.296-0.189l-2.242-5.934c-0.054-0.152-0.009-0.233,0.161-0.233h0.35c0.287,0,0.368,0.045,0.421,0.206
			l1.56,4.297c0.117,0.349,0.198,0.77,0.225,0.823h0.036c0.027-0.054,0.099-0.465,0.224-0.814l1.542-4.306
			c0.054-0.161,0.134-0.206,0.431-0.206h0.332C41.983,79.982,42.028,80.063,41.965,80.216z"/>
		<path fill="#FFFFFF" d="M44.297,81.585c1.453,0,1.856,0.796,1.856,1.809v2.336c0,0.313-0.072,0.403-0.322,0.51
			c-0.332,0.144-0.843,0.232-1.543,0.232c-1.579,0-1.963-0.509-1.963-1.423c0-1.047,0.574-1.405,2-1.405
			c0.439,0,0.87,0.045,1.022,0.062v-0.34c0-0.635-0.225-1.065-1.067-1.065c-0.538,0-0.897,0.188-1.112,0.546
			c-0.099,0.144-0.134,0.17-0.296,0.107l-0.278-0.125c-0.152-0.062-0.197-0.143-0.117-0.305
			C42.782,81.935,43.382,81.585,44.297,81.585z M44.234,84.298c-0.843,0-1.103,0.241-1.103,0.751c0,0.466,0.188,0.753,1.085,0.753
			c0.484,0,0.789-0.037,0.996-0.108c0.107-0.045,0.134-0.071,0.134-0.197v-1.127C45.167,84.351,44.674,84.298,44.234,84.298z"/>
		<path fill="#FFFFFF" d="M47.75,86.339h-0.368c-0.162,0-0.215-0.055-0.215-0.216v-6.194c0-0.161,0.054-0.215,0.215-0.215h0.368
			c0.161,0,0.215,0.054,0.215,0.215v6.194C47.965,86.284,47.911,86.339,47.75,86.339z"/>
		<path fill="#FFFFFF" d="M50.915,81.585c1.292,0,2.018,0.653,2.018,1.719v1.459c0,1.056-0.726,1.709-2.018,1.709
			c-1.264,0-2.009-0.653-2.009-1.709v-1.459C48.906,82.238,49.651,81.585,50.915,81.585z M50.915,82.31
			c-0.752,0-1.21,0.367-1.21,0.985v1.468c0,0.617,0.458,0.984,1.21,0.984c0.762,0,1.22-0.367,1.22-0.984v-1.468
			C52.135,82.677,51.677,82.31,50.915,82.31z"/>
		<path fill="#FFFFFF" d="M56.099,81.585c0.161,0,0.215,0.054,0.215,0.215v0.305c0,0.161-0.054,0.215-0.215,0.215h-0.314
			c-0.438,0-0.771,0.071-1.031,0.151c-0.115,0.045-0.125,0.099-0.125,0.18v3.473c0,0.161-0.054,0.216-0.215,0.216h-0.376
			c-0.152,0-0.206-0.055-0.206-0.216v-3.759c0-0.278,0.062-0.386,0.34-0.502c0.332-0.125,0.852-0.26,1.641-0.277H56.099z"/>
		<path fill="#FFFFFF" d="M58.744,81.585c1.381,0,2.026,0.796,2.026,1.854v0.519c0,0.188-0.08,0.313-0.331,0.313h-2.924v0.43
			c0,0.68,0.412,1.074,1.202,1.074c0.637,0,1.021-0.242,1.246-0.617c0.107-0.152,0.188-0.171,0.35-0.081l0.242,0.125
			c0.161,0.081,0.18,0.197,0.081,0.35c-0.314,0.546-0.897,0.921-1.929,0.921c-1.398,0-1.99-0.769-1.99-1.861v-1.109
			C56.718,82.292,57.417,81.585,58.744,81.585z M58.744,82.266c-0.808,0-1.229,0.429-1.229,1.128v0.259h2.457v-0.259
			C59.973,82.694,59.561,82.266,58.744,82.266z"/>
		<path fill="#FFFFFF" d="M63.228,81.585c1.041,0,1.605,0.385,1.874,0.967c0.081,0.161,0.037,0.251-0.106,0.312l-0.306,0.126
			c-0.161,0.072-0.206,0.045-0.295-0.098c-0.172-0.351-0.458-0.583-1.148-0.583s-1.022,0.215-1.022,0.645
			c0,0.573,0.476,0.646,1.22,0.708c1.022,0.099,1.775,0.322,1.775,1.378c0,0.851-0.618,1.432-1.875,1.432
			c-1.021,0-1.685-0.366-1.963-1.101c-0.062-0.143-0.026-0.232,0.135-0.286l0.305-0.107c0.144-0.045,0.215-0.026,0.287,0.135
			c0.179,0.465,0.582,0.645,1.211,0.645c0.762,0,1.12-0.242,1.12-0.681c0-0.537-0.439-0.636-1.192-0.707
			c-0.897-0.09-1.82-0.242-1.82-1.396C61.426,82.14,62.035,81.585,63.228,81.585z"/>
		<path fill="#FFFFFF" d="M69.685,81.585c0.557,0,1.022,0.135,1.256,0.197v-1.854c0-0.161,0.054-0.215,0.215-0.215h0.377
			c0.152,0,0.206,0.054,0.206,0.215v5.774c0,0.294-0.062,0.375-0.35,0.492c-0.35,0.134-0.843,0.276-1.605,0.276
			c-1.317,0-1.919-0.653-1.919-1.799v-1.262C67.864,82.247,68.466,81.585,69.685,81.585z M69.837,82.319
			c-0.807,0-1.165,0.384-1.165,1.119v1.208c0,0.716,0.395,1.092,1.184,1.092c0.395,0,0.727-0.062,0.959-0.144
			c0.117-0.044,0.126-0.071,0.126-0.17v-2.909C70.734,82.453,70.339,82.319,69.837,82.319z"/>
		<path fill="#FFFFFF" d="M74.644,81.585c1.381,0,2.026,0.796,2.026,1.854v0.519c0,0.188-0.08,0.313-0.332,0.313h-2.922v0.43
			c0,0.68,0.412,1.074,1.201,1.074c0.636,0,1.022-0.242,1.247-0.617c0.107-0.152,0.188-0.171,0.349-0.081l0.243,0.125
			c0.16,0.081,0.179,0.197,0.08,0.35c-0.313,0.546-0.896,0.921-1.929,0.921c-1.398,0-1.99-0.769-1.99-1.861v-1.109
			C72.617,82.292,73.316,81.585,74.644,81.585z M74.644,82.266c-0.807,0-1.228,0.429-1.228,1.128v0.259h2.456v-0.259
			C75.872,82.694,75.46,82.266,74.644,82.266z"/>
		<path fill="#FFFFFF" d="M81.917,79.849c1.345,0,2.089,0.537,2.412,1.521c0.054,0.17,0.018,0.241-0.152,0.305L83.809,81.8
			c-0.17,0.054-0.241,0.027-0.305-0.144c-0.224-0.671-0.69-1.002-1.587-1.002c-1.067,0-1.642,0.537-1.642,1.477v2.059
			c0,0.931,0.583,1.478,1.642,1.478c0.914,0,1.372-0.349,1.596-1.021c0.063-0.179,0.135-0.216,0.305-0.152l0.368,0.135
			c0.17,0.054,0.216,0.134,0.152,0.304c-0.322,0.984-1.058,1.539-2.421,1.539c-1.614,0-2.512-0.877-2.512-2.291V82.14
			C79.405,80.726,80.294,79.849,81.917,79.849z"/>
		<path fill="#FFFFFF" d="M87.011,81.585c1.291,0,2.018,0.653,2.018,1.719v1.459c0,1.056-0.727,1.709-2.018,1.709
			c-1.265,0-2.009-0.653-2.009-1.709v-1.459C85.002,82.238,85.746,81.585,87.011,81.585z M87.011,82.31
			c-0.753,0-1.211,0.367-1.211,0.985v1.468c0,0.617,0.458,0.984,1.211,0.984c0.763,0,1.22-0.367,1.22-0.984v-1.468
			C88.23,82.677,87.773,82.31,87.011,82.31z"/>
		<path fill="#FFFFFF" d="M90.554,86.339h-0.369c-0.161,0-0.215-0.055-0.215-0.216v-6.194c0-0.161,0.054-0.215,0.215-0.215h0.369
			c0.16,0,0.214,0.054,0.214,0.215v6.194C90.768,86.284,90.714,86.339,90.554,86.339z"/>
		<path fill="#FFFFFF" d="M93.719,81.585c1.291,0,2.018,0.653,2.018,1.719v1.459c0,1.056-0.727,1.709-2.018,1.709
			c-1.265,0-2.009-0.653-2.009-1.709v-1.459C91.71,82.238,92.454,81.585,93.719,81.585z M93.719,82.31
			c-0.753,0-1.211,0.367-1.211,0.985v1.468c0,0.617,0.458,0.984,1.211,0.984c0.762,0,1.22-0.367,1.22-0.984v-1.468
			C94.938,82.677,94.48,82.31,93.719,82.31z"/>
		<path fill="#FFFFFF" d="M101.232,81.585c1.176,0,1.695,0.627,1.695,1.736v2.802c0,0.161-0.054,0.216-0.206,0.216h-0.377
			c-0.161,0-0.215-0.055-0.215-0.216v-2.774c0-0.689-0.322-1.029-1.004-1.029c-0.493,0-0.87,0.161-1.059,0.241
			c0.099,0.206,0.135,0.466,0.135,0.761v2.802c0,0.161-0.054,0.216-0.206,0.216h-0.377c-0.161,0-0.216-0.055-0.216-0.216v-2.774
			c0-0.689-0.34-1.029-1.021-1.029c-0.341,0-0.592,0.053-0.843,0.143c-0.099,0.054-0.107,0.107-0.107,0.188v3.473
			c0,0.161-0.055,0.216-0.216,0.216h-0.377c-0.152,0-0.206-0.055-0.206-0.216v-3.732c0-0.277,0.062-0.395,0.341-0.51
			c0.332-0.144,0.799-0.296,1.516-0.296c0.502,0,0.879,0.116,1.147,0.34C99.88,81.827,100.417,81.585,101.232,81.585z"/>
		<path fill="#FFFFFF" d="M104.74,79.929v1.88c0.25-0.08,0.708-0.224,1.264-0.224c1.247,0,1.812,0.662,1.812,1.772v1.253
			c0,1.2-0.637,1.861-1.973,1.861c-0.699,0-1.247-0.143-1.569-0.276c-0.287-0.135-0.332-0.206-0.332-0.492v-5.774
			c0-0.161,0.054-0.215,0.206-0.215h0.377C104.687,79.714,104.74,79.768,104.74,79.929z M105.888,82.319
			c-0.503,0-0.933,0.151-1.147,0.232v2.873c0,0.09,0.009,0.126,0.125,0.17c0.225,0.081,0.547,0.144,0.924,0.144
			c0.834,0,1.22-0.385,1.22-1.155v-1.198C107.009,82.703,106.642,82.319,105.888,82.319z"/>
		<path fill="#FFFFFF" d="M109.582,80.457v0.072c0,0.322-0.099,0.429-0.43,0.429h-0.055c-0.322,0-0.43-0.098-0.43-0.429v-0.072
			c0-0.322,0.107-0.43,0.43-0.43h0.055C109.483,80.027,109.582,80.135,109.582,80.457z M109.528,81.935v4.188
			c0,0.161-0.054,0.216-0.215,0.216h-0.377c-0.161,0-0.215-0.055-0.215-0.216v-4.188c0-0.162,0.054-0.215,0.215-0.215h0.377
			C109.475,81.72,109.528,81.772,109.528,81.935z"/>
		<path fill="#FFFFFF" d="M112.309,81.585c1.452,0,1.856,0.796,1.856,1.809v2.336c0,0.313-0.072,0.403-0.324,0.51
			c-0.331,0.144-0.842,0.232-1.542,0.232c-1.578,0-1.964-0.509-1.964-1.423c0-1.047,0.575-1.405,2.001-1.405
			c0.438,0,0.869,0.045,1.021,0.062v-0.34c0-0.635-0.224-1.065-1.067-1.065c-0.538,0-0.896,0.188-1.111,0.546
			c-0.099,0.144-0.135,0.17-0.297,0.107l-0.277-0.125c-0.152-0.062-0.197-0.143-0.116-0.305
			C110.793,81.935,111.394,81.585,112.309,81.585z M112.246,84.298c-0.843,0-1.104,0.241-1.104,0.751
			c0,0.466,0.188,0.753,1.085,0.753c0.484,0,0.789-0.037,0.995-0.108c0.108-0.045,0.135-0.071,0.135-0.197v-1.127
			C113.178,84.351,112.685,84.298,112.246,84.298z"/>
	</g>
</g>
<g>
</g>
<g>
</g>
<g>
</g>
<g>
</g>
<g>
</g>
<g>
</g>
</svg>
