<?xml version="1.0" encoding="utf-8"?>
<!-- Generator: Adobe Illustrator 16.0.0, SVG Export Plug-In . SVG Version: 6.00 Build 0)  -->
<!DOCTYPE svg PUBLIC "-//W3C//DTD SVG 1.1//EN" "http://www.w3.org/Graphics/SVG/1.1/DTD/svg11.dtd">
<svg version="1.1" id="Capa_1" xmlns="http://www.w3.org/2000/svg" xmlns:xlink="http://www.w3.org/1999/xlink" x="0px" y="0px"
	 width="50.69px" height="41.058px" viewBox="0 0 50.69 41.058" enable-background="new 0 0 50.69 41.058" xml:space="preserve">
<g>
	<path fill="#FFFFFF" d="M7.928,28.542c-0.383,0-0.764-0.16-1.033-0.475c-0.492-0.57-0.426-1.43,0.146-1.918l9.701-7.887
		c0.394-0.338,0.944-0.422,1.424-0.218l6.722,3.758l9.724-9.499c0.499-0.454,1.259-0.472,1.779-0.044l7.262,5.952
		c0.583,0.476,0.67,1.335,0.191,1.916c-0.475,0.583-1.335,0.669-1.918,0.192l-6.353-5.208l-9.503,9.296
		c-0.395,0.36-0.962,0.456-1.453,0.245l-6.747-3.769l-9.056,7.333C8.559,28.435,8.243,28.542,7.928,28.542z"/>
</g>
<path fill="#FFFFFF" d="M50.661,7.016C50.661,0.951,48.206,0,42.585,0H6.846C2.25,0,0,2.073,0,7.016c0,8.971,0,17.941,0,26.913
	c0,7.139,4.716,7.122,8.025,7.122l34.308,0.017c4.751,0,8.357-1.536,8.357-6.816L50.661,7.016z M43.607,35.792
	c-11.49,0.003-25.115,0.003-36.609,0c-1.069,0-1.736-0.658-1.736-1.722c-0.004-8.327,0-18.782,0.003-27.111
	c0.002-1.206,0.626-1.808,1.844-1.808C18.587,5.155,32.192,5.155,43.67,5.155c1.07,0,1.724,0.657,1.727,1.724
	c0.003,3.465,0.003,24.13,0.003,27.099C45.399,35.157,44.775,35.792,43.607,35.792z"/>
<g>
</g>
<g>
</g>
<g>
</g>
<g>
</g>
<g>
</g>
<g>
</g>
</svg>
