<?xml version="1.0" encoding="utf-8"?>
<!-- Generator: Adobe Illustrator 16.0.0, SVG Export Plug-In . SVG Version: 6.00 Build 0)  -->
<!DOCTYPE svg PUBLIC "-//W3C//DTD SVG 1.1//EN" "http://www.w3.org/Graphics/SVG/1.1/DTD/svg11.dtd">
<svg version="1.1" id="Capa_1" xmlns="http://www.w3.org/2000/svg" xmlns:xlink="http://www.w3.org/1999/xlink" x="0px" y="0px"
	 width="252.522px" height="105.102px" viewBox="0 0 252.522 105.102" enable-background="new 0 0 252.522 105.102"
	 xml:space="preserve">
<g>
	<path fill="#FFFFFF" d="M0,83.76l15.864-32.636h7.522l5.876,25.03l14.615-25.03h7.463L55.84,83.76h-6.459l-3.222-25.458
		L30.822,83.76H25.02l-6.556-25.632L6.574,83.76H0z"/>
	<path fill="#FFFFFF" d="M57.302,83.76l21.463-32.636h5.746l9.037,32.636h-6.22l-2-8.604H68.923l-5.284,8.604H57.302z M71.34,71.275
		h13.03l-3.822-14.263L71.34,71.275z"/>
	<path fill="#FFFFFF" d="M107.279,51.124c0.12,0,19.275-0.001,19.275-0.001l-0.75,4.015h-18.3c-1.463,0-2.418,0.269-2.87,0.804
		c-0.313,0.416-0.532,0.979-0.661,1.692l-1.417,7.847l18.868,0.024l-0.778,4.158l-18.856,0.054l-1.412,7.844
		c-0.167,1.131,0.128,1.815,0.874,2.054c0.599,0.176,1.392,0.268,2.378,0.268h17.711l-0.721,3.993c0,0-18.878,0.017-19.193,0.017
		c-5.093,0-7.286-1.961-6.579-5.884l3.759-20.819c0.394-2.2,1.418-3.76,3.064-4.682C103.317,51.587,105.188,51.124,107.279,51.124z"
		/>
	<path fill="#FFFFFF" d="M135.208,51.237c1.388-0.25,2.544-0.379,3.473-0.379c0.93,0,16.576,0.207,16.576,0.207l-0.703,3.987
		c0,0-17.164-0.073-17.768-0.03c-0.6,0.046-1.207,0.071-1.968,0.338c-1.395,0.507-2.268,1.738-2.622,3.699l-0.467,2.588
		c-0.304,1.694-0.056,2.786,0.742,3.276c0.802,0.49,2.206,0.735,4.22,0.735h7.938c6.356,0,9.056,2.646,8.101,7.935l-0.504,2.81
		c-0.64,3.538-2.812,5.842-6.521,6.91c-1.873,0.536-3.982,0.803-6.33,0.803c-2.352,0-15.809-0.014-15.809-0.014l0.686-4.037
		c0,0,16.107,0.067,16.586,0.038c0.479-0.029,1.087-0.111,1.82-0.244c0.735-0.135,1.362-0.319,1.88-0.558
		c1.255-0.624,1.999-1.575,2.231-2.852l0.483-2.678c0.229-1.277,0.072-2.265-0.473-2.961c-0.547-0.699-1.685-1.049-3.426-1.049
		h-7.815c-5.135,0-8.171-1.218-9.113-3.657c-0.423-1.158-0.482-2.582-0.176-4.279l0.525-2.897c0.562-3.121,2.076-5.275,4.541-6.464
		C132.524,51.898,133.819,51.488,135.208,51.237z"/>
	<path fill="#FFFFFF" d="M156.781,55.093l0.717-3.97h30.619l-0.716,3.97h-12.735l-5.173,28.667h-5.448l5.171-28.667H156.781z"/>
	<path fill="#FFFFFF" d="M208.605,51.124c6.989,0,9.887,3.301,8.698,9.9c-0.383,2.11-0.884,3.621-1.497,4.523
		c-0.618,0.909-1.13,1.6-1.53,2.076c-0.403,0.472-0.856,0.867-1.367,1.178c-0.512,0.313-0.95,0.569-1.323,0.76
		c-0.37,0.193-0.825,0.363-1.364,0.513c-0.705,0.176-1.36,0.312-1.968,0.401l6.488,13.284h-5.983l-6.231-13.063l-10.593-0.037
		l-2.364,13.1h-5.447l5.886-32.636H208.605z M192.668,66.597h12.91c2.171,0,3.65-0.432,4.439-1.295
		c0.835-0.917,1.398-2.175,1.685-3.766c0.287-1.587,0.366-2.8,0.241-3.631c-0.128-0.831-0.434-1.442-0.913-1.832
		c-0.786-0.681-1.907-1.023-3.367-1.023h-12.911L192.668,66.597z"/>
	<path fill="#FFFFFF" d="M218.135,66.998c0.457-2.53,1.157-4.841,2.108-6.933c0.949-2.098,1.978-3.731,3.076-4.905
		c1.101-1.174,2.501-2.088,4.199-2.744c1.693-0.653,3.3-1.066,4.812-1.245c1.513-0.18,3.247-0.268,5.2-0.268
		c1.955,0,3.507,0.043,4.658,0.133c1.146,0.087,2.32,0.268,3.516,0.534c1.192,0.268,2.173,0.642,2.937,1.116
		c0.764,0.474,1.474,1.129,2.133,1.96c0.658,0.833,1.12,1.828,1.386,2.987c0.56,2.586,0.471,5.931-0.269,10.032
		c-0.869,4.815-2.2,8.35-3.989,10.609c-0.887,1.188-1.842,2.164-2.867,2.922c-1.025,0.757-2.264,1.329-3.713,1.714
		c-2.454,0.686-5.536,1.027-9.248,1.027c-5.41,0-9.036-0.581-10.882-1.74c-1.883-1.16-3.033-2.764-3.451-4.814
		C217.202,74.89,217.336,71.427,218.135,66.998z M225.048,61.511c-0.345,0.804-0.637,1.717-0.882,2.746
		c-0.243,1.024-0.495,2.242-0.748,3.654c-0.254,1.412-0.428,2.689-0.515,3.833c-0.087,1.147-0.093,2.163-0.019,3.056
		c0.077,0.889,0.287,1.633,0.635,2.228c0.346,0.596,0.761,1.091,1.24,1.495c0.479,0.402,1.135,0.706,1.968,0.914
		c1.478,0.355,3.23,0.536,5.262,0.536c2.035,0,3.584-0.06,4.655-0.181c1.062-0.116,2.084-0.349,3.058-0.688
		c0.966-0.342,1.776-0.796,2.436-1.361c0.655-0.564,1.26-1.31,1.822-2.23c1.01-1.667,1.838-4.279,2.482-7.846
		c0.477-2.645,0.687-4.524,0.63-5.64c-0.054-1.115-0.115-1.985-0.18-2.609c-0.065-0.624-0.232-1.164-0.507-1.626
		c-0.272-0.46-0.537-0.854-0.791-1.18c-0.258-0.329-0.644-0.602-1.154-0.827c-0.517-0.222-0.966-0.392-1.358-0.511
		c-0.395-0.117-0.962-0.208-1.699-0.268c-1.09-0.089-2.268-0.132-3.531-0.132c-1.263,0-2.161,0.007-2.697,0.022
		c-0.536,0.013-1.185,0.052-1.945,0.109c-0.762,0.061-1.36,0.151-1.795,0.268c-0.437,0.119-0.95,0.282-1.54,0.49
		c-0.589,0.208-1.071,0.478-1.448,0.802c-0.375,0.329-0.789,0.721-1.251,1.184c-0.459,0.459-0.842,1.002-1.149,1.626
		C225.715,59.998,225.389,60.709,225.048,61.511z"/>
</g>
<g>
	<path fill="#FFFFFF" d="M110.632,28.542c-0.383,0-0.764-0.16-1.033-0.475c-0.492-0.57-0.426-1.43,0.146-1.918l9.701-7.887
		c0.394-0.338,0.944-0.422,1.424-0.218l6.722,3.758l9.724-9.499c0.499-0.454,1.259-0.472,1.779-0.044l7.262,5.952
		c0.583,0.476,0.67,1.335,0.191,1.916c-0.475,0.583-1.335,0.669-1.918,0.192l-6.353-5.208l-9.503,9.296
		c-0.395,0.36-0.962,0.456-1.453,0.245l-6.747-3.769l-9.056,7.333C111.263,28.435,110.947,28.542,110.632,28.542z"/>
</g>
<path fill="#FFFFFF" d="M153.365,7.016c0-6.065-2.455-7.016-8.076-7.016H109.55c-4.595,0-6.846,2.073-6.846,7.016
	c0,8.971,0,17.941,0,26.913c0,7.139,4.716,7.122,8.025,7.122l34.308,0.017c4.751,0,8.357-1.536,8.357-6.816L153.365,7.016z
	 M146.312,35.792c-11.49,0.003-25.115,0.003-36.609,0c-1.069,0-1.736-0.658-1.736-1.722c-0.004-8.327,0-18.782,0.003-27.111
	c0.002-1.206,0.626-1.808,1.844-1.808c11.478,0.003,25.083,0.003,36.561,0.003c1.07,0,1.724,0.657,1.727,1.724
	c0.003,3.465,0.003,24.13,0.003,27.099C148.104,35.157,147.479,35.792,146.312,35.792z"/>
<g>
	<path fill="#FFFFFF" d="M170.188,88.629c1.67,0,2.901,0.316,3.69,0.955c0.807,0.683,1.209,1.521,1.209,2.511
		c0,0.3-0.008,0.601-0.028,0.913c-0.179,0.993-0.581,1.77-1.211,2.333c-0.633,0.564-1.418,0.935-2.362,1.114
		c0.591,0.072,1.131,0.444,1.624,1.109c0.413,0.534,0.62,1.224,0.62,2.069c0,0.264-0.029,0.539-0.091,0.821
		c-0.233,1.45-0.895,2.556-1.977,3.311c-1.083,0.755-2.716,1.134-4.903,1.134h-8.475l3.427-16.271H170.188z M170.925,100.233
		c0.06-0.253,0.089-0.564,0.089-0.935s-0.147-0.748-0.442-1.134c-0.435-0.564-1.183-0.846-2.244-0.846h-5.701l-1.179,5.626
		l5.698,0.02C169.271,102.965,170.532,102.052,170.925,100.233z M172.401,92.231c0-0.536-0.203-0.943-0.605-1.226
		c-0.401-0.281-1.089-0.422-2.052-0.422h-5.7l-1.003,4.825h5.641c2.064,0,3.276-0.815,3.631-2.444
		C172.371,92.695,172.401,92.451,172.401,92.231z"/>
	<path fill="#FFFFFF" d="M177.094,101.23c-0.036,0.225-0.055,0.488-0.055,0.792c0,0.303,0.15,0.578,0.456,0.821
		c0.304,0.245,0.896,0.367,1.77,0.367c0.878,0,1.669-0.086,2.38-0.253c0.707-0.174,1.691-0.487,2.951-0.947l1.86-8.916h2.716
		l-2.479,11.805h-2.038l-0.412-1.334c-0.061,0.03-0.314,0.14-0.769,0.323c-0.453,0.185-0.887,0.359-1.299,0.523
		c-1.242,0.457-2.578,0.689-4.015,0.689c-1.438,0-2.48-0.366-3.132-1.09c-0.494-0.52-0.738-1.158-0.738-1.912
		c0-0.28,0.029-0.577,0.089-0.889l1.713-8.116h2.718L177.094,101.23z"/>
	<path fill="#FFFFFF" d="M195.418,93.709c0.423-0.171,0.989-0.339,1.698-0.503c0.708-0.16,1.495-0.241,2.362-0.241
		s1.447,0.057,1.743,0.177l-0.442,2c-0.491-0.075-1.242-0.109-2.246-0.109c-1.002,0-1.894,0.094-2.671,0.276
		c-0.777,0.188-1.737,0.522-2.88,1.012l-1.8,8.579h-2.717l2.48-11.805h2.065l0.325,1.491c0.08-0.029,0.341-0.141,0.782-0.334
		C194.562,94.062,194.997,93.88,195.418,93.709z"/>
	<path fill="#FFFFFF" d="M207.896,103.211c0.962,0,1.525-0.362,1.682-1.089l0.236-1.022c0.039-0.118,0.06-0.256,0.06-0.411
		c0-0.158-0.079-0.311-0.236-0.469c-0.158-0.154-0.512-0.232-1.062-0.232h-4.134c-1.457,0-2.52-0.236-3.189-0.711
		c-0.472-0.354-0.709-0.874-0.709-1.554c0-0.238,0.032-0.499,0.09-0.781l0.234-1.11c0.218-0.993,0.685-1.731,1.402-2.213
		c0.719-0.479,1.714-0.723,2.984-0.723c1.27,0,8.227,0.069,8.227,0.069l-0.417,1.799h-7.529c-0.985,0-1.606,0.269-1.86,0.801
		c-0.042,0.104-0.079,0.229-0.118,0.376l-0.207,0.979c-0.117,0.565-0.028,0.903,0.269,1.022c0.214,0.089,0.454,0.132,0.721,0.124
		c0.266-0.01,0.428-0.013,0.486-0.013h4.221c1.304,0,2.259,0.281,2.867,0.846c0.473,0.43,0.71,0.948,0.71,1.557
		c0,0.19-0.022,0.385-0.06,0.577l-0.266,1.401c-0.159,0.783-0.495,1.377-1.003,1.776c-0.515,0.388-1.007,0.623-1.479,0.712
		c-0.688,0.119-1.44,0.18-2.259,0.18c-0.815,0-7.985-0.045-7.985-0.045l0.412-1.846H207.896z"/>
	<path fill="#FFFFFF" d="M217.461,93.586c0.572-0.251,1.083-0.422,1.537-0.512c0.453-0.089,0.906-0.152,1.359-0.188
		c0.452-0.037,0.997-0.057,1.638-0.057c0.64,0,1.637,0.111,2.997,0.334c1.36,0.221,2.393,0.582,3.102,1.088l-2.066,10.647h-2.009
		l-0.412-1.311c-0.554,0.339-1.33,0.67-2.334,0.988c-1.004,0.32-1.925,0.479-2.762,0.479s-1.514-0.057-2.038-0.166
		c-0.522-0.112-1.013-0.313-1.475-0.603c-0.465-0.289-0.803-0.678-1.019-1.166c-0.276-0.651-0.415-1.355-0.415-2.112
		c0-0.756,0.108-1.58,0.324-2.468c0.215-0.889,0.518-1.678,0.902-2.368c0.383-0.688,0.781-1.229,1.194-1.623
		C216.398,94.159,216.889,93.836,217.461,93.586z M217.402,96.652c-0.155,0.296-0.316,0.661-0.472,1.089
		c-0.158,0.432-0.3,0.952-0.429,1.558c-0.128,0.608-0.191,1.168-0.191,1.68c0,0.511,0.088,0.927,0.266,1.255
		c0.335,0.607,1.018,0.91,2.053,0.91c1.033,0,1.904-0.084,2.613-0.255c0.71-0.17,1.566-0.448,2.569-0.837l1.415-6.999
		c-1.259-0.267-2.237-0.399-2.936-0.399c-0.7,0-1.222,0.025-1.565,0.077c-0.345,0.054-0.609,0.096-0.797,0.134
		c-0.188,0.036-0.42,0.1-0.695,0.188c-0.274,0.089-0.502,0.197-0.678,0.323c-0.18,0.127-0.374,0.296-0.593,0.51
		C217.748,96.103,217.56,96.355,217.402,96.652z M221.093,91.495l3.663-2.978h3.013l-4.459,2.978H221.093z"/>
	<path fill="#FFFFFF" d="M233.497,104.899c-2.382,0-3.574-0.972-3.574-2.911c0-0.4,0.049-0.831,0.148-1.287l1.184-5.78h-2.809
		l0.383-1.864l2.837,0.018l0.785-3.289h2.61l-0.679,3.289h4.282l-0.415,1.847h-4.281l-1.18,5.647
		c-0.216,1.151-0.132,1.835,0.177,2.132c0.437,0.421,3.122,0.271,3.164,0.271l-0.389,1.929H233.497z"/>
	<path fill="#FFFFFF" d="M237.129,104.899l2.48-11.805h2.715l-2.481,11.805H237.129z M240.818,89.274h1.922
		c0.394,0,0.589,0.138,0.589,0.421c0,0.045-0.011,0.09-0.029,0.135l-0.265,1.421c-0.079,0.343-0.345,0.514-0.797,0.514h-1.919
		c-0.218,0-0.38-0.051-0.488-0.146c-0.108-0.096-0.144-0.219-0.104-0.368l0.265-1.421C240.071,89.46,240.347,89.274,240.818,89.274z
		"/>
	<path fill="#FFFFFF" d="M245.987,104.899c-2.401,0-3.602-0.972-3.602-2.911c0-0.4,0.048-0.831,0.147-1.287l2.775-13.206h2.716
		l-2.745,13.073c-0.257,1.151-0.241,1.917,0.146,2.132c0.896,0.494,3.141,0.307,3.141,0.307l-0.395,1.893H245.987z"/>
</g>
<g>
</g>
<g>
</g>
<g>
</g>
<g>
</g>
<g>
</g>
<g>
</g>
</svg>
