<?xml version="1.0" encoding="utf-8"?>
<!-- Generator: Adobe Illustrator 16.0.0, SVG Export Plug-In . SVG Version: 6.00 Build 0)  -->
<!DOCTYPE svg PUBLIC "-//W3C//DTD SVG 1.1//EN" "http://www.w3.org/Graphics/SVG/1.1/DTD/svg11.dtd">
<svg version="1.1" id="Capa_1" xmlns="http://www.w3.org/2000/svg" xmlns:xlink="http://www.w3.org/1999/xlink" x="0px" y="0px"
	 width="400.396px" height="152.836px" viewBox="0 0 400.396 152.836" enable-background="new 0 0 400.396 152.836"
	 xml:space="preserve">
<g>
	<path fill="#FFFFFF" d="M4.616,2.712c3.137,0,4.93,0.219,7.693,0.219c2.754,0,5.586-0.146,7.222-0.146
		c1.421,0,2.322,0.227,2.322,0.817c0,0.598-0.823,1.122-2.243,1.415c-2.676,0.525-4.098,1.27-4.547,4.255
		c-0.372,2.456-0.294,10.215-0.294,20.805c0,8.428,1.86,11.63,4.174,14.244c2.087,2.312,6.929,4.1,10.809,4.1
		c4.852,0,12.085-2.238,13.944-10.442c0.903-3.948,1.649-10.215,1.649-18.718c0-4.846-0.228-8.722-0.303-9.617
		c-0.226-2.835-0.748-3.874-4.922-4.846c-0.751-0.153-1.567-0.825-1.567-1.343c0-0.444,0.45-0.744,1.715-0.744
		c1.862,0,3.949,0.219,6.339,0.219c3.059,0,4.625-0.146,6.705-0.146c1.195,0,1.873,0.227,1.873,0.817c0,0.453-0.6,0.97-1.649,1.343
		c-3.204,0.896-4.691,2.165-4.84,6.859c-0.08,3.208-0.529,11.485-0.667,15.36c-0.382,12.976-3.958,19.54-9.329,22.52
		c-3.431,1.94-7.456,2.39-10.731,2.39c-6.723,0-11.712-2.764-13.504-4.398c-4.175-3.954-5.967-9.399-5.967-21.928
		c0-10.735-0.228-16.703-0.295-17.673C8.047,6.662,7.009,5.468,4.174,4.871C3.284,4.646,2.459,4.273,2.459,3.603
		C2.459,3.012,3.43,2.712,4.616,2.712z"/>
	<path fill="#FFFFFF" d="M83.923,2.931c0.45,0.153,0.899,1.27,0.899,1.42c0.14,1.42,0.745,5.739,0.745,6.039
		c0,1.267,0,2.014-0.528,2.014c-0.598,0-1.489-0.52-1.794-1.565c-0.892-2.684-2.912-4.923-3.655-5.371
		c-1.333-1.043-3.125-1.712-5.281-1.712c-5.006,0-8.575,3.728-8.575,8.722c0,5.295,3.792,7.609,10.357,12.008
		c5.744,3.877,10.29,7.753,10.29,14.466c0,3.729-2.087,7.904-6.116,10.513c-2.388,1.563-6.79,2.687-10.134,2.687
		c-2.388,0-7.463-0.823-9.77-1.938c-0.744-0.449-1.715-2.088-1.715-2.389c-0.381-2.531-1.127-5.816-1.127-7.011
		c0-0.294,0.747-1.416,1.053-1.416c0.595,0,1.712,1.939,2.76,4.252c1.931,4.102,6.859,5.963,9.686,5.963
		c5.141,0,9.021-3.65,9.021-9.021c0-3.129-1.489-6.486-9.32-11.485c-6.336-4.101-10.807-8.429-10.807-14.764
		c0-3.504,1.558-6.859,4.105-9.098c2.305-2.087,5.812-3.654,11.035-3.654C78.708,1.591,82.58,2.712,83.923,2.931z"/>
	<path fill="#FFFFFF" d="M131.51,2.857c2.681-0.145,4.033-0.598,5.074-1.343c0.519-0.298,0.744-0.445,1.043-0.445
		c0.375,0,0.672,0.673,0.291,1.717c-0.747,2.311-1.19,4.62-1.628,8.502c-0.09,0.669-0.678,1.413-1.274,1.413
		c-0.528,0-0.825-0.522-1.046-2.384c-0.441-3.877-1.413-4.249-6.04-4.474c-1.274-0.072-9.543-0.072-10.438,0.146
		c-0.381,0.08-0.675,0.822-0.675,0.972c0,3.502,0,11.785,0,18.269c0,8.651,0,15.735,0.294,18.494
		c0.381,3.356,0.754,4.247,5.371,5.296c0.971,0.222,2.018,0.82,2.018,1.338c0,0.822-1.339,0.895-2.087,0.895
		c-0.6,0-5.214-0.369-8.505-0.369c-3.725,0-7.527,0.523-8.494,0.523c-1.492,0-2.237-0.449-2.237-0.895
		c0-0.527,0.746-1.121,1.413-1.271c5.222-1.193,5.371-2.46,5.594-8.053c0.156-4.397,0.521-19.613,0.521-25.354
		c0-4.25,0-5.666,0-8.875c0-0.599-0.364-0.972-0.591-0.972c-1.489-0.217-8.054-0.372-9.249-0.372c-2.841,0-4.398,0.452-5.518,1.715
		c-0.3,0.227-1.194,1.416-2.468,3.88c-0.666,1.564-1.108,1.489-1.412,1.489c-0.441,0-0.741-0.972-0.741-1.715
		c0-1.417,1.409-5.442,1.409-9.841c0-0.522,0.673-1.19,1.127-1.19c0.369,0,0.369,0.517,1.194,1.19
		c0.223,0.225,1.412,1.342,2.528,1.414c1.941,0.228,7.909,0.455,17.454,0.455C118.309,3.012,128.463,2.931,131.51,2.857z"/>
	<path fill="#FFFFFF" d="M157.182,3.529c0.6,2.014,1.868,5.369,3.284,9.247c3.877,10.888,9.467,25.652,10.738,28.706
		c2.462,6.115,3.656,6.714,7.008,7.537c1.196,0.371,1.793,0.744,1.793,1.266c0,0.523-0.527,0.967-2.381,0.967
		c-2.471,0-6.117-0.369-9.407-0.369c-2.384,0-3.431,0.146-5.281,0.146c-1.877,0-2.327-0.517-2.327-0.892
		c0-0.373,0.45-0.969,1.791-1.195c3.583-0.745,3.287-2.235,2.996-3.803c-0.609-3.058-2.459-7.978-4.174-12.749
		c-0.09-0.3-0.384-0.745-2.549-0.745c-4.096,0-10.657,0.074-12.229,0.295c-0.297,0-0.668,0.375-0.815,0.597
		c-1.94,4.846-3.883,11.186-3.883,13.05c0,0.895,0.297,2.164,3.658,3.208c1.263,0.372,2.012,0.817,2.012,1.341
		c0,0.746-1.112,0.97-2.084,0.97c-1.274,0-3.134-0.224-5.886-0.224c-2.765,0-6.648,0.369-7.764,0.369
		c-1.343,0-1.715-0.295-1.715-0.74c0-0.449,0.516-1.121,1.646-1.492c3.724-1.268,4.696-1.494,6.858-6.339
		c1.715-3.804,10.21-26.324,13.497-34.378c0.297-0.598,0.45-1.19,0.45-1.568c0-0.222,0-0.372,0.138-0.594
		c0.672-0.895,1.715-2.833,2.243-3.654c0.521-0.598,0.821-0.895,1.188-0.895C156.285,1.591,156.591,1.888,157.182,3.529z
		 M159.572,27.691c-1.263-3.802-5.146-14.99-5.821-16.034c-0.225-0.445-0.363-0.523-0.587,0c-1.355,3.579-5.221,14.02-5.82,16.333
		c-0.069,0.295,0.072,0.518,0.366,0.518c2.996-0.072,9.176,0,11.635-0.222C159.416,28.286,159.641,27.916,159.572,27.691z"/>
	<path fill="#FFFFFF" d="M211.052,25.451c-0.377,0.226-1.789,0.896-2.316,1.27c-0.217,0.151-0.445,0.822-0.297,1.116
		c0.748,1.794,7.016,11.858,11.557,16.931c2.018,2.385,4.035,3.73,7.311,4.4c0.594,0.145,1.193,0.745,1.193,1.045
		c0,0.445-0.6,0.744-1.037,0.967c-0.904,0.375-2.537,0.521-4.109,0.521c-3.496,0-7.758-2.087-9.92-4.845
		c-2.602-3.577-6.414-9.321-9.396-14.018c-1.035-1.57-2.531-3.431-2.979-3.73c-0.291-0.298-3.055-0.969-5.301-0.969
		c-0.516,0-0.879,0.67-0.879,0.896c-0.084,1.267,0.066,10.735,0.291,15.061c0.146,3.131,0.971,4.174,4.473,4.997
		c1.264,0.372,1.791,0.892,1.791,1.265c0,0.749-1.416,0.971-1.791,0.971c-3.139,0-4.549-0.445-9.616-0.445
		c-1.355,0-5.224,0.297-6.045,0.297c-0.972,0-1.943-0.297-1.943-1.043c0-0.598,0.678-0.746,1.649-1.117
		c3.274-1.049,4.624-1.494,4.849-4.324c0.135-2.315,0.44-10.218,0.44-14.689c0-11.489-0.144-18.277-0.44-21.179
		c-0.303-2.759-0.972-2.911-4.33-3.73c-1.115-0.297-1.784-0.672-1.784-1.269c0-0.521,0.366-0.896,2.009-0.896
		c2.315,0,2.618,0,4.178,0c2.749,0,8.051-0.374,12.079-0.374c5.148,0,9.172,0.672,12.152,3.132c2.459,2.014,4.256,5.744,4.256,9.324
		C217.095,19.043,214.71,23.217,211.052,25.451z M207.095,7.704c-1.791-1.715-4.994-2.833-7.381-2.833
		c-0.369,0-2.762,0.147-3.574,0.525c-0.383,0.147-0.898,1.266-0.898,1.564c-0.227,2.608-0.447,17.002-0.227,18.269
		c0.154,0.597,0.742,1.119,1.195,1.119c4.332,0,8.281-1.269,9.318-1.94c2.02-1.265,4.922-4.546,4.922-9.245
		C210.45,13.373,209.263,9.87,207.095,7.704z"/>
	<path fill="#FFFFFF" d="M235.015,10.242c-0.225-3.432-0.225-4.552-4.402-5.295c-1.643-0.3-2.1-0.819-2.1-1.343
		c0-0.591,0.832-0.891,1.875-0.891c1.939,0,5.662,0.219,8.127,0.219c3.652,0,5.367-0.219,7.982-0.219c1.199,0,1.855,0.3,1.855,0.891
		c0,0.598-0.746,1.043-1.932,1.268c-4.32,0.9-4.254,2.759-4.545,4.774c-0.385,2.459-0.453,7.305-0.453,21.922
		c0,4.101,0.068,8.726,0.225,11.113c0.229,4.026,0.598,5.445,5.438,6.413c1.352,0.22,1.939,0.747,1.939,1.265
		c0,0.6-1.115,0.971-2.006,0.971c-3.812,0-9.098-0.445-11.113-0.445c-2.246,0-2.908,0.146-5.674,0.146
		c-1.416,0-1.932-0.517-1.932-1.044c0-0.52,0.75-0.965,2.232-1.264c3.736-0.821,4.035-1.939,4.326-5.442
		c0.225-2.612,0.381-10.369,0.381-16.703C235.239,21.949,235.161,12.701,235.015,10.242z"/>
	<path fill="#FFFFFF" d="M289.907,2.712c0.885-0.155,1.27,0.073,1.27,0.372c0,0.297-0.16,0.972-0.902,1.862
		c-0.973,0.97-3.354,4.55-6.568,9.098c-7.604,11.333-19.002,29.381-20.945,32.365c-0.225,0.297-0.08,0.743,0.297,0.968
		c0.746,0.447,6.711,0.819,11.102,0.819c2.621,0,8.133,0,9.475-0.226c3.588-0.445,4.699-0.818,9.254-7.157
		c0.891-1.192,1.264-1.937,1.943-1.937c0.443,0,0.664,0.672,0.664,1.643c0,1.189-1.568,4.693-3.73,9.465
		c-0.363,0.674-1.113,1.268-4.322,1.268c-5.895,0-23.121-0.295-26.553-0.295c-3.268,0-6.18,0-7.082,0
		c-0.521,0-1.26-0.445-1.26-1.044c0-0.601,1.562-2.388,3.197-4.7c2.754-3.576,23.344-34.822,25.137-38.101
		c0.363-0.525,0-0.972-0.307-1.043c-2.902-0.297-10.512-0.378-13.492-0.378c-1.266,0-4.402,0.153-5.447,0.378
		c-2.232,0.519-4.543,1.713-6.701,5.661c-0.605,1.198-1.271,1.644-1.648,1.644c-0.451,0-1.035-0.672-0.451-2.534
		c0.229-0.749,2.238-5.594,2.99-8.798c0.08-0.598,0.52-0.972,0.963-0.972c0.225,0,0.898,0.3,1.195,0.673
		c0.82,0.815,1.711,0.97,3.734,1.115c2.016,0.074,7.086,0.227,11.775,0.227C279.089,3.084,288.261,2.931,289.907,2.712z"/>
	<path fill="#FFFFFF" d="M338.099,14.416c0.082,4.4-4.465,6.489-7.379,8.276c-0.225,0.153-0.068,0.45,0,0.45
		c3.059,1.937,9.098,7.754,12.301,11.707c0.451,0.599,0.678,0.447,1.123,0c2.389-2.387,6.559-8.573,7.678-10.288
		c0.969-1.494,0.898-1.868,0.898-2.242c0-0.517-0.898-1.117-3.201-1.561c-0.529-0.081-1.49-0.375-1.49-0.971
		c0-0.45,0.664-0.896,1.852-0.896c3.293,0,6.195-0.074,7.533-0.222c1.65-0.223,4.475-0.672,5.303-0.672
		c1.039,0,1.627,0.449,1.627,0.749c0,0.517-0.518,0.892-1.627,1.189c-3.807,1.043-5.818,3.057-8.877,6.414
		c-2.246,2.46-6.861,8.276-8.947,10.588c-0.156,0.225-0.223,0.672,0,0.897c1.115,1.643,2.602,3.73,4.018,5.817
		c2.24,3.205,5.371,3.947,8.213,4.027c1.941,0,4.172-0.75,5.594-1.644c0.521-0.372,0.812,0,0.812,0.3
		c0,0.672-0.373,1.418-1.342,2.387c-3.123,2.906-7.832,3.502-10.066,3.431c-1.498,0-3.428-0.224-4.77-0.745
		c-1.344-0.598-2.166-1.344-3.059-2.984c-1.406-2.611-2.762-5.071-3.51-6.115c-0.068,0-0.293-0.227-0.449-0.075
		c-2.377,2.834-6.252,6.635-8.643,8.053c-2.236,1.27-4.17,2.014-7.086,2.014c-7.15,0-13.268-5.593-13.268-13.272
		c0-5.816,4.467-9.474,6.859-11.335c1.193-0.898,4.098-2.909,4.465-3.13c0.16-0.075,0.232-0.298,0.076-0.45
		c-2.824-2.237-4.99-5.366-4.99-8.576c0-4.101,2.393-6.636,3.496-7.603c2.02-1.644,4.781-2.759,7.09-2.759
		C334.3,5.245,338.099,10.462,338.099,14.416z M338.774,40.666c0.297-0.445,0.297-0.972-0.291-1.715
		c-3.656-4.998-11.26-12.007-13.203-13.05c-0.447-0.297-1.121-0.224-1.646,0.148c-3.43,2.61-6.408,6.266-6.408,11.111
		c0,2.759,1.334,5.519,3.35,7.234c1.861,1.639,4.178,2.909,7.391,2.909C331.841,47.304,336.315,44.023,338.774,40.666z
		 M322.661,13.299c0,3.431,3.059,6.635,5.893,8.35c0.453,0.225,0.822,0.072,1.051-0.073c0.742-0.445,1.115-0.898,2.006-1.938
		c0.898-1.043,1.346-3.357,1.346-5.145c0-2.46-1.418-7.087-5.732-7.161C325.948,7.332,322.661,8.747,322.661,13.299z"/>
	<path fill="#FFFFFF" d="M27.225,65.696c0.588,2.015,1.853,5.374,3.275,9.253c3.88,10.883,9.473,25.65,10.738,28.703
		c2.459,6.121,3.657,6.719,7.009,7.539c1.193,0.373,1.792,0.744,1.792,1.266c0,0.52-0.521,0.973-2.392,0.973
		c-2.459,0-6.113-0.379-9.387-0.379c-2.393,0-3.431,0.152-5.302,0.152c-1.862,0-2.303-0.523-2.303-0.896
		c0-0.371,0.441-0.965,1.783-1.189c3.586-0.746,3.282-2.234,2.98-3.805c-0.589-3.057-2.46-7.977-4.174-12.752
		c-0.071-0.297-0.374-0.742-2.531-0.742c-4.104,0-10.669,0.07-12.229,0.293c-0.304,0-0.676,0.379-0.823,0.598
		c-1.942,4.842-3.88,11.188-3.88,13.053c0,0.893,0.303,2.164,3.654,3.209c1.273,0.371,2.02,0.809,2.02,1.336
		c0,0.744-1.127,0.969-2.098,0.969c-1.264,0-3.126-0.225-5.889-0.225c-2.757,0-6.635,0.379-7.753,0.379
		c-1.34,0-1.715-0.297-1.715-0.75c0-0.447,0.52-1.115,1.637-1.488c3.735-1.266,4.694-1.49,6.861-6.338
		c1.715-3.803,10.219-26.322,13.494-34.377c0.304-0.6,0.45-1.188,0.45-1.568c0-0.229,0-0.375,0.156-0.592
		c0.669-0.898,1.715-2.842,2.236-3.658c0.52-0.596,0.814-0.896,1.198-0.896C26.325,63.761,26.619,64.062,27.225,65.696z
		 M29.605,89.871c-1.271-3.814-5.144-14.992-5.811-16.045c-0.225-0.445-0.381-0.52-0.606,0c-1.334,3.586-5.216,14.021-5.812,16.336
		c-0.078,0.297,0.078,0.52,0.369,0.52c2.983-0.072,9.176,0,11.635-0.223C29.458,90.458,29.685,90.093,29.605,89.871z"/>
	<path fill="#FFFFFF" d="M80.632,85.984c-0.228,0.072-0.072,0.523,0.156,0.588c3.654,1.65,9.163,5.08,9.163,12.311
		c0,5.293-2.384,8.723-5.958,11.115c-3.588,2.525-9.623,3.432-13.357,3.432c-2.08,0-9.241-0.297-12.671-0.297
		c-1.715,0-3.508,0.07-4.771,0.07c-1.12,0-2.168-0.299-2.168-0.971c0-0.592,1.048-1.041,1.871-1.197
		c5.293-0.971,5.293-1.943,5.596-4.539c0.216-1.572,0.588-9.619,0.588-24.457c0-6.424-0.224-10.672-0.45-11.787
		c-0.363-1.641-0.587-2.459-4.693-2.984c-0.968-0.145-1.94-0.6-1.94-1.193c0-0.6,0.972-0.972,2.02-0.972h4.996
		c2.382,0,8.8-0.522,11.849-0.522c4.399,0,8.282,0.75,10.515,2.16c3.654,2.242,5.3,6.045,5.3,9.404
		C86.676,81.96,83.246,84.564,80.632,85.984z M76.75,89.933c-2.009-1.033-5.145-1.418-7.898-1.418c-1.715,0-3.137,0.385-3.284,0.527
		c-0.147,0.219-0.373,0.523-0.521,2.154c-0.224,2.691-0.075,12.391,0.304,14.992c0.07,0.525,0.442,1.799,1.188,2.465
		c1.567,1.717,4.096,2.537,5.067,2.537c6.272,0,11.337-4.402,11.337-11.553C82.943,95.154,80.334,91.72,76.75,89.933z
		 M69.527,66.896c-0.452,0-2.39,0.297-3.204,0.594c-0.156,0.084-0.832,0.898-0.901,1.189c-0.147,1.197-0.45,4.559-0.45,16.564
		c0,0.369,0.156,0.973,0.822,0.973c3.282,0,8.654-0.682,10.515-1.875c2.382-1.559,4.096-4.553,4.096-7.674
		C80.404,70.623,76.457,66.896,69.527,66.896z"/>
	<path fill="#FFFFFF" d="M148.74,88.447c0,10.436-5.14,17.742-10.591,21.617c-4.702,3.293-10.882,4.336-14.688,4.336
		c-7.606,0-14.839-3.283-19.396-8.504c-3.948-4.402-6.18-10.445-6.18-16.854c0-9.172,4.024-15.514,9.692-20.061
		c3.652-2.989,10.072-5.221,15.287-5.221C137.184,63.761,148.74,74.271,148.74,88.447z M110.931,70.476
		c-3.275,3.201-5.816,8.795-5.816,17.518c0,11.115,8.203,23.867,20.14,23.867c6.187,0,9.029-2.686,9.842-3.578
		c2.978-2.688,6.336-8.732,6.336-17.602c0-8.127-3.505-15.957-9.029-20.43c-3.05-2.459-7.754-4.031-11.187-4.031
		C118.091,66.22,113.542,67.864,110.931,70.476z"/>
	<path fill="#FFFFFF" d="M195.603,65.406c1.488,0.29,2.014,0.361,2.826,0.587c0.303,0,0.898,0.608,0.898,1.8
		c0.072,1.789,1.035,5.363,1.035,8.201c0,0.971-0.447,1.646-0.963,1.646c-0.453,0-0.893-0.609-1.338-1.719
		c-0.746-2.016-1.715-3.809-2.842-5.224c-1.637-2.019-5.956-4.624-11.935-4.624c-12.75,0-20.277,10.436-20.277,22.217
		c0,5.301,1.191,9.994,3.35,13.578c3.956,6.707,11.116,10.291,18.055,10.291c0.894,0,4.624-0.453,6.706-1.789
		c0.607-0.373,1.576-2.904,1.576-3.875c0-2.615-0.08-6.857-0.229-7.758c-0.516-1.719-1.123-3.139-6.713-3.502
		c-1.115-0.082-1.934-0.676-1.934-1.271c0-0.527,0.818-1.047,2.236-1.047c1.338,0,6.774,0.303,8.942,0.303
		c1.791,0,4.33-0.303,6.711-0.303c1.197,0,2.021,0.385,2.021,0.971c0,0.518-0.824,0.963-1.715,1.266
		c-2.23,0.67-2.393,1.496-2.688,2.316c-0.293,0.814-0.381,6.182-0.381,9.244c0,1.197,0.676,1.939,1.047,2.168
		c1.344,0.738,1.277,0.963,1.277,1.338c0,0.293-0.305,0.814-1.133,1.041c-1.326,0.379-3.877,0.971-6.781,1.789
		c-3.202,0.895-7.829,1.35-10.288,1.35c-8.36,0-15.284-2.693-19.833-6.795c-3.43-3.277-7.683-9.393-7.683-18.344
		c0-6.635,2.312-13.422,8.426-18.785c4.705-4.174,11.854-6.715,19.089-6.715C188.514,63.761,192.466,64.734,195.603,65.406z"/>
	<path fill="#FFFFFF" d="M232.915,65.696c0.592,2.015,1.857,5.374,3.275,9.253c3.883,10.883,9.475,25.65,10.738,28.703
		c2.459,6.121,3.654,6.719,7.01,7.539c1.199,0.373,1.791,0.744,1.791,1.266c0,0.52-0.52,0.973-2.391,0.973
		c-2.459,0-6.113-0.379-9.389-0.379c-2.387,0-3.43,0.152-5.301,0.152c-1.863,0-2.303-0.523-2.303-0.896
		c0-0.371,0.439-0.965,1.783-1.189c3.586-0.746,3.281-2.234,2.979-3.805c-0.588-3.057-2.459-7.977-4.172-12.752
		c-0.072-0.297-0.375-0.742-2.531-0.742c-4.107,0-10.668,0.07-12.229,0.293c-0.305,0-0.678,0.379-0.82,0.598
		c-1.943,4.842-3.887,11.188-3.887,13.053c0,0.893,0.305,2.164,3.654,3.209c1.275,0.371,2.025,0.809,2.025,1.336
		c0,0.744-1.125,0.969-2.096,0.969c-1.27,0-3.131-0.225-5.893-0.225c-2.754,0-6.633,0.379-7.756,0.379
		c-1.336,0-1.709-0.297-1.709-0.75c0-0.447,0.516-1.115,1.639-1.488c3.727-1.266,4.689-1.49,6.857-6.338
		c1.711-3.803,10.219-26.322,13.494-34.377c0.303-0.6,0.451-1.188,0.451-1.568c0-0.229,0-0.375,0.15-0.592
		c0.67-0.898,1.715-2.842,2.24-3.658c0.516-0.596,0.812-0.896,1.197-0.896C232.017,63.761,232.313,64.062,232.915,65.696z
		 M235.3,89.871c-1.277-3.814-5.146-14.992-5.814-16.045c-0.225-0.445-0.375-0.52-0.604,0c-1.338,3.586-5.217,14.021-5.814,16.336
		c-0.08,0.297,0.082,0.52,0.373,0.52c2.977-0.072,9.176,0,11.635-0.223C235.155,90.458,235.378,90.093,235.3,89.871z"/>
	<path fill="#FFFFFF" d="M300.942,71.669c4.02,3.871,6.783,10.592,6.783,16.48c0,10.812-6.717,18.639-11.932,21.551
		c-4.393,2.531-10.592,4.174-17.748,4.174c-3.053,0-9.686-0.225-14.609-0.6c-1.416-0.072-2.771-0.072-3.959-0.072
		c-1.713,0-2.379-0.523-2.379-1.117c0-0.6,0.744-0.969,1.639-1.051c5.143-0.588,5.514-2.008,5.742-7.898
		c0.145-3.498,0.225-5.822,0.225-10.219c0-4.246-0.158-13.047-0.383-19.162c-0.137-4.773-0.227-5.82-4.764-6.488
		c-0.82-0.145-1.715-0.666-1.715-1.193c0-0.6,0.67-0.972,1.787-0.972h2.088c3.732,0,12.15-0.669,18.566-0.669
		C290.72,64.433,297.962,68.908,300.942,71.669z M271.862,67.348c-0.525,0.362-0.682,0.516-0.75,0.968
		c-0.15,0.883-0.293,7.523-0.293,14.166v10.82c0,5.207,0.07,9.609,0.293,12.887c0.225,2.316,1.422,3.354,1.648,3.512
		c1.406,1.043,4.465,1.939,6.111,1.939c3.432,0,9.762-1.352,13.947-4.852c4.471-3.807,7.674-10.285,7.674-18.639
		c0-6.418-3.203-13.426-7.977-17.008c-3.73-2.754-9.988-4.402-15.516-4.402C274.321,66.74,272.534,66.964,271.862,67.348z"/>
	<path fill="#FFFFFF" d="M365.696,88.447c0,10.436-5.143,17.742-10.59,21.617c-4.697,3.293-10.891,4.336-14.689,4.336
		c-7.598,0-14.84-3.283-19.387-8.504c-3.957-4.402-6.197-10.445-6.197-16.854c0-9.172,4.039-15.514,9.709-20.061
		c3.65-2.989,10.059-5.221,15.275-5.221C354.14,63.761,365.696,74.271,365.696,88.447z M327.892,70.476
		c-3.287,3.201-5.816,8.795-5.816,17.518c0,11.115,8.195,23.867,20.135,23.867c6.18,0,9.02-2.686,9.838-3.578
		c2.988-2.688,6.338-8.732,6.338-17.602c0-8.127-3.504-15.957-9.027-20.43c-3.047-2.459-7.748-4.031-11.178-4.031
		C335.052,66.22,330.495,67.864,327.892,70.476z"/>
	<path fill="#FFFFFF" d="M397.937,65.102c0.447,0.147,0.9,1.274,0.9,1.421c0.145,1.412,0.744,5.742,0.744,6.039
		c0,1.264,0,2.01-0.521,2.01c-0.604,0-1.488-0.521-1.795-1.562c-0.887-2.687-2.91-4.918-3.652-5.37
		c-1.342-1.038-3.123-1.71-5.291-1.71c-5,0-8.576,3.723-8.576,8.715c0,5.295,3.801,7.617,10.359,12.018
		c5.748,3.869,10.291,7.744,10.291,14.467c0,3.725-2.084,7.898-6.117,10.512c-2.383,1.562-6.783,2.688-10.133,2.688
		c-2.395,0-7.457-0.834-9.771-1.939c-0.744-0.453-1.715-2.1-1.715-2.391c-0.373-2.531-1.115-5.822-1.115-7.016
		c0-0.295,0.742-1.416,1.049-1.416c0.588,0,1.709,1.943,2.75,4.258c1.943,4.102,6.863,5.955,9.691,5.955
		c5.148,0,9.029-3.646,9.029-9.014c0-3.127-1.5-6.486-9.33-11.488c-6.332-4.1-10.809-8.422-10.809-14.768
		c0-3.5,1.57-6.857,4.107-9.092c2.301-2.088,5.822-3.656,11.031-3.656C392.722,63.761,396.601,64.88,397.937,65.102z"/>
</g>
<g>
	<path fill="#FFFFFF" d="M17.301,121.968c1.195,0,2.808-0.033,3.345-0.102c0.111-0.037,0.294,0.221,0.33,0.396
		c0,1.684,0.069,2.73,0.069,3.465c0,0.504-0.207,0.936-0.54,0.936c-0.327,0-0.518-0.496-0.588-0.863
		c-0.469-1.934-1.271-2.297-2.441-2.477c-0.936-0.15-3.562-0.229-5.164-0.15c-0.069,0-0.475,0.186-0.546,1.02
		c-0.08,0.912-0.181,7.756-0.111,8.301c0.031,0.15,0.069,0.365,0.259,0.365h2.363c3.423,0,3.562-0.148,4.218-1.82
		c0.227-0.549,0.444-0.77,0.658-0.77c0.263,0,0.332,0.518,0.294,0.807c-0.077,1.021-0.109,1.75-0.109,2.623
		c0,0.984,0.078,1.49,0.109,2.219c0.038,0.654-0.146,1.057-0.396,1.057c-0.259,0-0.52-0.402-0.624-0.799
		c-0.511-1.678-0.658-1.787-2.874-1.896c-1.164-0.076-2.618-0.076-3.604-0.076c-0.147,0-0.329,0.256-0.329,0.326
		c-0.148,0.76-0.106,4.16-0.106,5.719c0,1.057,0.141,2.441,0.365,3.025c0.138,0.436,0.433,0.732,0.694,0.801
		c0.606,0.104,1.853,0.252,3.308,0.252c0.432,0,2.651-0.035,3.458-0.252c1.167-0.293,2.148-0.988,3.02-2.703
		c0.402-0.795,0.627-1.012,0.833-1.012c0.258,0,0.364,0.578,0.294,0.98c-0.036,0.295-1.057,3.566-1.307,3.893
		c-0.114,0.15-0.444,0.438-0.613,0.438c-0.408,0-5.909-0.287-11.833-0.287c-1.938,0-2.736,0.182-4.125,0.182
		c-0.693,0-1.088-0.07-1.088-0.467c0-0.262,0.441-0.443,1.021-0.588c1.819-0.436,2.513-0.695,2.658-2.65
		c0.112-1.535,0.287-5.83,0.287-10.34c0-4.33,0.034-5.107-0.036-6.152c-0.067-1.611-0.432-2.043-2.035-2.408
		c-0.771-0.184-1.056-0.328-1.056-0.619c0-0.332,0.511-0.51,1.014-0.51c1.715,0,3.137,0.139,5.578,0.139H17.301z"/>
	<path fill="#FFFFFF" d="M43.606,130.892c0.399,0.072,1.091,0.365,1.169,0.398c0.07,0.037,0.286,0.291,0.286,0.508
		c0,0.66,0.113,1.9,0.113,2.152c0,0.328-0.147,0.66-0.441,0.66c-0.147,0-0.366-0.223-0.547-0.617
		c-0.796-1.717-1.715-2.441-2.909-2.441c-1.489,0-2.183,1.49-2.183,2.248c0,1.254,1.159,2.184,3.604,3.537
		c2.035,1.201,2.838,2.443,2.838,4.078c0,1.67-1.203,2.91-2.113,3.57c-0.66,0.426-1.931,0.84-3.059,0.84
		c-1.09,0-2.916-0.293-3.532-0.811c-0.113-0.18-0.546-1.703-0.546-2.762c0-0.395,0.07-0.758,0.295-0.758
		c0.294,0,0.544,0.432,0.76,0.83c1.024,1.852,2.003,2.58,3.311,2.58c0.475,0,1.057-0.252,1.453-0.537
		c0.556-0.438,0.85-1.314,0.85-2.01c0-0.988-0.52-1.748-1.645-2.443c-0.867-0.615-1.092-0.795-2.218-1.527
		c-1.091-0.689-2.261-1.963-2.261-3.666c0-1.248,0.616-2.445,1.999-3.283c0.694-0.432,1.682-0.762,2.913-0.762
		C42.437,130.677,43.202,130.787,43.606,130.892z"/>
	<path fill="#FFFFFF" d="M67.816,131.039c0.035,0,0.396,0.182,0.396,0.289c0-0.107,0.115,0.914,0.115,1.383
		c0,0.332-0.685,0.4-0.944,0.4c-0.148,0-3.569,0-3.967,0c-0.192,0-0.332,0.193-0.332,0.256c-0.031,0.729-0.066,6.08-0.066,7.832
		c0,0.902,0.206,1.389,0.616,1.785c0.693,0.613,1.453,0.689,2.222,0.689c0.471,0,1.232-0.223,1.786-0.553
		c0.319-0.17,0.397-0.219,0.538-0.219c0.032,0,0.224,0.082,0.224,0.41c0,0.285-0.258,0.648-0.521,0.9
		c-0.978,0.957-2.25,1.613-3.886,1.613c-1.5,0-2.762-0.92-3.206-1.715c-0.4-0.625-0.477-1.389-0.477-2.412
		c0-1.34,0.156-6.807,0.156-8.068c0-0.264-0.657-0.52-1.387-0.732c-0.294-0.119-0.521-0.291-0.521-0.404
		c0-0.145,0.125-0.281,0.227-0.396c1.273-1.021,2.409-1.896,2.91-2.51c0.432-0.516,0.694-0.807,0.839-0.807
		c0.185,0,0.513,0.324,0.513,0.396c0,0.158,0,0.66,0,1.715c0,0.115,0.139,0.295,0.293,0.295
		C64.141,131.187,67.678,131.039,67.816,131.039z"/>
	<path fill="#FFFFFF" d="M91.513,142.722c0.227-0.18,0.555-0.729,0.555-0.863l0.069-8.385c0-0.207-0.397-0.729-0.624-0.801
		c-0.535-0.137-1.343-0.363-1.673-0.432c-0.249-0.072-0.726-0.293-0.726-0.588c0-0.135,0.477-0.326,0.838-0.326
		c1.457,0,3.051-0.178,3.899-0.398c0.364-0.105,0.615-0.143,0.867-0.143c0.192,0,0.259,0.4,0.259,0.541
		c-0.067,1.021-0.364,9.113-0.364,12.09c0,0.068,0.138,0.514,0.435,0.514c0.258,0,1.385-0.18,1.817-0.18
		c0.147,0,0.399,0.574,0.43,0.686c0,0.105-0.24,0.369-0.394,0.369c-0.945,0.066-2.477,0.461-3.308,0.688
		c-0.625,0.176-1.196,0.332-1.274,0.332c-0.147,0-0.364-0.262-0.364-0.525c0-0.203,0.112-0.898,0.148-1.52
		c0-0.184-0.112-0.295-0.192-0.264c-1.056,0.73-2.511,1.686-2.979,1.865c-0.624,0.252-1.421,0.443-2.442,0.443
		c-1.307,0-2.477-0.594-3.205-1.715c-0.252-0.402-0.501-1.127-0.501-1.715c0-2.615,0-6.73-0.07-8.666
		c-0.042-1.02-0.738-1.156-1.351-1.42c-0.33-0.141-0.658-0.322-0.658-0.656c0-0.102,0.182-0.326,0.622-0.326
		c1.015,0,3.708-0.398,3.856-0.398c0.147,0,0.283,0.328,0.283,0.555c0.046,1.227-0.102,8.107-0.102,9.748
		c0,0.834,0.397,1.67,0.907,2.041c0.946,0.732,1.604,0.732,2.48,0.732S90.613,143.517,91.513,142.722z"/>
	<path fill="#FFFFFF" d="M120.959,130.824c0.14,0.033,0.262-0.225,0.298-0.398c0.175-0.99,0.067-6.559-0.036-7.434
		c-0.042-0.184-0.042-0.621-1.715-1.488c-0.33-0.191-0.364-0.26-0.364-0.326c0-0.154,0.4-0.588,0.616-0.631
		c0.837-0.098,2.762-0.646,3.715-1.01c0.219-0.082,0.33-0.111,0.471-0.111c0.111,0,0.324,0.256,0.291,0.588
		c-0.18,1.922-0.33,3.238-0.33,14.375c0,7.35,0.072,7.605,0.111,8.301c0.039,1.352,0.324,1.488,0.549,1.488
		c0.399,0,1.607-0.246,1.961-0.291c0.153,0,0.222,0.188,0.222,0.225c0,0.258-0.432,0.875-0.624,0.904
		c-0.684,0.115-2.585,0.479-3.271,0.73c-0.832,0.289-1.127,0.361-1.307,0.361c-0.153,0-0.405-0.281-0.405-0.473
		c0-0.334,0.081-0.98,0.081-1.488c0-0.141-0.154-0.215-0.225-0.215c-1.681,1.48-3.536,1.814-4.729,1.814
		c-1.75,0-3.429-0.807-4.557-1.994c-1.162-1.326-1.75-3.176-1.75-4.99c0-3.572,2.078-5.65,3.861-6.711
		c1.684-1.012,3.831-1.373,4.808-1.373C119.938,130.677,120.529,130.751,120.959,130.824z M114.448,133.154
		c-0.692,0.684-1.532,2.549-1.532,4.582c0,2.908,2.035,6.27,5.171,6.27c1.159,0,2.001-0.408,2.649-0.885
		c0.08-0.066,0.558-1.229,0.589-2.398c0.036-2.334,0-4.33-0.104-6.039c-0.042-0.295-0.375-0.953-0.808-1.379
		c-1.02-1.027-2.397-1.426-3.125-1.426C116.12,131.878,115.099,132.494,114.448,133.154z"/>
	<path fill="#FFFFFF" d="M140.425,131.767c1.343-0.283,3.059-1.09,3.613-1.24c0.141,0,0.318,0.365,0.318,0.402
		c0,0.398-0.216,5.137-0.216,7.201c0,2.049,0.039,3.568,0.072,4.854c0.03,1.162,0.84,1.229,1.751,1.525
		c0.587,0.184,0.794,0.363,0.794,0.621c0,0.219-0.432,0.363-0.836,0.363c-0.258,0-2.075-0.111-2.843-0.111
		c-1.188,0-2.471,0.15-3.089,0.15c-0.576,0-0.941-0.15-0.941-0.402c0-0.225,0.246-0.396,0.864-0.588
		c0.839-0.217,1.385-0.656,1.457-1.025c0.111-0.496,0.15-2.682,0.15-3.736c0-0.068,0.042-5.252-0.039-5.686
		c-0.033-0.258-0.441-0.547-1.491-1.316c-0.213-0.135-0.293-0.242-0.293-0.396C139.697,132.13,140.029,131.845,140.425,131.767z
		 M144.608,125.076c0,0.975-1.014,1.781-1.739,1.781c-0.252,0-0.846-0.148-1.169-0.445c-0.294-0.316-0.54-0.723-0.54-1.336
		c0-0.334,0.138-0.922,0.432-1.32c0.366-0.33,0.912-0.465,1.424-0.465C143.991,123.291,144.608,124.416,144.608,125.076z"/>
	<path fill="#FFFFFF" d="M174.541,138.095c0,3.023-1.817,5.391-3.17,6.273c-1.454,1.043-2.875,1.457-4.513,1.457
		c-1.673,0-3.491-0.777-4.84-1.895c-1.56-1.281-2.693-3.752-2.693-5.574c0-2.77,1.167-4.52,2.543-5.684
		c1.133-0.986,2.954-1.996,5.397-1.996C170.868,130.677,174.541,133.519,174.541,138.095z M164.199,132.826
		c-0.945,0.873-1.785,2.762-1.785,4.658c0,1.205,0.15,2.332,0.438,3.238c0.917,2.729,2.993,4.041,4.738,4.041
		c0.402,0,1.203-0.182,2.222-1.199c0.902-0.977,1.631-3.24,1.631-4.803c0-1.893-0.435-3.971-1.82-5.574
		c-0.798-0.877-2.114-1.42-3.05-1.42C165.806,131.767,164.963,132.169,164.199,132.826z"/>
	<path fill="#FFFFFF" d="M202.896,150.005c0.105-0.111,0.695-0.473,0.873-0.473c0.152,0,0.879,0.264,1.131,0.434
		c0.693,0.441,1.379,0.768,1.895,0.768c0.617,0,0.947-0.111,1.461-0.695c0.576-0.609,0.908-1.496,1.02-3.02
		c0.141-2.256,0.207-6.184,0.207-11.354c0-5.24-0.066-8.957-0.207-10.705c-0.082-0.725-0.291-1.637-2.146-1.969
		c-0.85-0.135-1.137-0.396-1.137-0.693c0-0.291,0.287-0.432,0.977-0.432c1.135,0,2.447,0.102,4.049,0.102
		c1.271,0,2.693-0.102,3.82-0.102c0.443,0,0.986,0.068,0.986,0.365c0,0.363-0.332,0.576-1.092,0.727
		c-1.453,0.293-2.084,0.797-2.084,2.65c0,2.996-0.135,13.361-0.135,16.492c-0.033,4.414-2.078,7.613-3.932,9.031
		c-1.682,1.271-3.205,1.75-4.156,1.75c-1.195,0-2.369-0.73-2.369-1.416C202.056,151.132,202.534,150.373,202.896,150.005z"/>
	<path fill="#FFFFFF" d="M237.962,142.722c0.217-0.18,0.547-0.729,0.547-0.863l0.078-8.385c0-0.207-0.408-0.729-0.625-0.801
		c-0.545-0.137-1.352-0.363-1.68-0.432c-0.252-0.072-0.729-0.293-0.729-0.588c0-0.135,0.477-0.326,0.84-0.326
		c1.463,0,3.059-0.178,3.898-0.398c0.363-0.105,0.615-0.143,0.873-0.143c0.184,0,0.252,0.4,0.252,0.541
		c-0.068,1.021-0.365,9.113-0.365,12.09c0,0.068,0.152,0.514,0.443,0.514c0.252,0,1.389-0.18,1.822-0.18
		c0.133,0,0.396,0.574,0.43,0.686c0,0.105-0.252,0.369-0.396,0.369c-0.951,0.066-2.48,0.461-3.311,0.688
		c-0.623,0.176-1.203,0.332-1.283,0.332c-0.135,0-0.359-0.262-0.359-0.525c0-0.203,0.111-0.898,0.143-1.52
		c0-0.184-0.109-0.295-0.18-0.264c-1.055,0.73-2.51,1.686-2.977,1.865c-0.631,0.252-1.424,0.443-2.443,0.443
		c-1.316,0-2.48-0.594-3.207-1.715c-0.26-0.402-0.51-1.127-0.51-1.715c0-2.615,0-6.73-0.078-8.666
		c-0.035-1.02-0.729-1.156-1.342-1.42c-0.322-0.141-0.648-0.322-0.648-0.656c0-0.102,0.17-0.326,0.615-0.326
		c1.01,0,3.715-0.398,3.854-0.398c0.154,0,0.287,0.328,0.287,0.555c0.041,1.227-0.1,8.107-0.1,9.748c0,0.834,0.396,1.67,0.9,2.041
		c0.951,0.732,1.609,0.732,2.48,0.732C236.073,144.005,237.054,143.517,237.962,142.722z"/>
	<path fill="#FFFFFF" d="M256.956,131.949c1.205-0.396,2.326-0.941,2.689-1.162c0.438-0.297,0.629-0.439,0.732-0.439
		c0.143,0,0.322,0.33,0.322,0.439c0,0.652-0.062,1.311-0.062,1.992c0,0.156,0.172,0.191,0.252,0.156
		c1.418-1.354,3.02-2.258,4.146-2.258c1.49,0,1.818,0.904,1.818,1.238c0,0.072-0.107,0.326-0.219,0.5
		c-0.396,0.588-1.27,1.578-1.5,1.68c-0.062,0.039-0.396-0.033-0.494-0.102c-0.402-0.363-1.289-0.807-2.016-0.807
		c-0.611,0-1.229,0.117-1.592,0.512c-0.262,0.295-0.363,0.615-0.363,0.799c0,0.725,0.172,7.316,0.219,7.861
		c0.076,1.059,0.279,1.752,0.945,1.854c0.473,0.113,1.121,0.297,1.68,0.441c0.578,0.182,0.646,0.443,0.646,0.578
		c0,0.18-0.32,0.332-0.873,0.332c-0.898,0-2.182-0.182-4.297-0.182c-1.092,0-1.525,0.15-2.398,0.15c-0.408,0-0.771-0.15-0.771-0.436
		c0-0.225,0.439-0.363,0.732-0.482c1.416-0.469,1.539-0.834,1.572-3.018c0-0.904,0-4.557,0-6.957c0-0.361,0-0.84-0.396-1.092
		c-0.885-0.689-1.248-0.838-1.248-0.975C256.481,132.458,256.554,132.097,256.956,131.949z"/>
	<path fill="#FFFFFF" d="M279.958,131.767c1.344-0.283,3.059-1.09,3.613-1.24c0.141,0,0.32,0.365,0.32,0.402
		c0,0.398-0.213,5.137-0.213,7.201c0,2.049,0.033,3.568,0.064,4.854c0.035,1.162,0.84,1.229,1.75,1.525
		c0.594,0.184,0.799,0.363,0.799,0.621c0,0.219-0.432,0.363-0.828,0.363c-0.264,0-2.084-0.111-2.844-0.111
		c-1.195,0-2.479,0.15-3.09,0.15c-0.586,0-0.949-0.15-0.949-0.402c0-0.225,0.252-0.396,0.867-0.588
		c0.84-0.217,1.389-0.656,1.457-1.025c0.111-0.496,0.156-2.682,0.156-3.736c0-0.068,0.037-5.252-0.045-5.686
		c-0.035-0.258-0.363-0.547-1.418-1.316c-0.287-0.172-0.365-0.285-0.365-0.469C279.233,132.05,279.562,131.845,279.958,131.767z
		 M284.366,121.867c0.33,0,1.127,0,1.389,0.293c0.105,0.139,0,0.615-0.191,0.979c-0.729,1.379-2.4,4.15-3.238,5.391
		c-0.217,0.33-0.615,0.697-0.945,0.697c-0.318,0-0.252-0.621-0.146-0.984c0.432-1.316,1.568-4.088,2.258-5.611
		C283.743,122.119,284.144,121.867,284.366,121.867z"/>
	<path fill="#FFFFFF" d="M309.853,130.824c0.146,0.033,0.26-0.225,0.291-0.398c0.186-0.99,0.07-6.559-0.031-7.434
		c-0.033-0.184-0.033-0.621-1.721-1.488c-0.324-0.191-0.363-0.26-0.363-0.326c0-0.154,0.404-0.588,0.627-0.631
		c0.834-0.098,2.766-0.646,3.707-1.01c0.225-0.082,0.332-0.111,0.477-0.111c0.111,0,0.332,0.256,0.285,0.588
		c-0.174,1.922-0.318,3.238-0.318,14.375c0,7.35,0.068,7.605,0.113,8.301c0.031,1.352,0.318,1.488,0.535,1.488
		c0.395,0,1.613-0.246,1.975-0.291c0.141,0,0.207,0.188,0.207,0.225c0,0.258-0.432,0.875-0.615,0.904
		c-0.684,0.115-2.578,0.479-3.273,0.73c-0.836,0.289-1.137,0.361-1.307,0.361c-0.145,0-0.4-0.281-0.4-0.473
		c0-0.334,0.072-0.98,0.072-1.488c0-0.141-0.15-0.215-0.225-0.215c-1.676,1.48-3.529,1.814-4.734,1.814
		c-1.752,0-3.422-0.807-4.553-1.994c-1.16-1.326-1.744-3.176-1.744-4.99c0-3.572,2.074-5.65,3.859-6.711
		c1.678-1.012,3.826-1.373,4.812-1.373C308.829,130.677,309.417,130.751,309.853,130.824z M303.339,133.154
		c-0.695,0.684-1.527,2.549-1.527,4.582c0,2.908,2.033,6.27,5.162,6.27c1.172,0,2.006-0.408,2.662-0.885
		c0.074-0.066,0.549-1.229,0.578-2.398c0.033-2.334,0-4.33-0.102-6.039c-0.033-0.295-0.365-0.953-0.801-1.379
		c-1.02-1.027-2.408-1.426-3.133-1.426C305.019,131.878,303.999,132.494,303.339,133.154z"/>
	<path fill="#FFFFFF" d="M329.321,131.767c1.342-0.283,3.059-1.09,3.6-1.24c0.141,0,0.332,0.365,0.332,0.402
		c0,0.398-0.225,5.137-0.225,7.201c0,2.049,0.033,3.568,0.078,4.854c0.035,1.162,0.84,1.229,1.738,1.525
		c0.594,0.184,0.807,0.363,0.807,0.621c0,0.219-0.443,0.363-0.838,0.363c-0.252,0-2.072-0.111-2.844-0.111
		c-1.197,0-2.475,0.15-3.08,0.15c-0.594,0-0.959-0.15-0.959-0.402c0-0.225,0.264-0.396,0.881-0.588
		c0.84-0.217,1.375-0.656,1.451-1.025c0.115-0.496,0.148-2.682,0.148-3.736c0-0.068,0.039-5.252-0.033-5.686
		c-0.037-0.258-0.443-0.547-1.488-1.316c-0.227-0.135-0.293-0.242-0.293-0.396C328.597,132.13,328.923,131.845,329.321,131.767z
		 M333.505,125.076c0,0.975-1.016,1.781-1.738,1.781c-0.264,0-0.852-0.148-1.174-0.445c-0.293-0.316-0.545-0.723-0.545-1.336
		c0-0.334,0.139-0.922,0.436-1.32c0.361-0.33,0.92-0.465,1.424-0.465C332.89,123.291,333.505,124.416,333.505,125.076z"/>
	<path fill="#FFFFFF" d="M359.909,131.625c0.355,0.254,0.545,0.869,0.545,1.086c0,0.594-1.062,1.457-1.199,1.457
		c-0.225,0-0.838-0.285-1.422-0.693c-1.203-0.867-1.816-1.424-3.064-1.424c-0.572,0-1.674,0.523-2.252,1.254
		c-0.986,1.084-1.523,2.58-1.523,4.18c0,2.107,0.795,3.424,0.934,3.635c0.916,1.531,2.701,2.445,4.594,2.445
		c1.355,0,2.291-0.443,3.238-1.09c0.395-0.301,0.695-0.184,0.695,0c0,0.395-0.189,0.76-0.475,1.043
		c-1.277,1.422-3.35,2.268-5.246,2.268c-2.285,0-4.217-1.203-5.387-2.916c-0.611-1.01-1.127-2.725-1.127-4.26
		c0-2.66,1.418-4.879,3.531-6.299c1.426-1.02,3.789-1.523,4.77-1.523C357.61,130.787,359.222,131.076,359.909,131.625z"/>
	<path fill="#FFFFFF" d="M388.741,138.095c0,3.023-1.82,5.391-3.176,6.273c-1.451,1.043-2.873,1.457-4.518,1.457
		c-1.672,0-3.49-0.777-4.83-1.895c-1.57-1.281-2.701-3.752-2.701-5.574c0-2.77,1.166-4.52,2.543-5.684
		c1.133-0.986,2.953-1.996,5.396-1.996C385.058,130.677,388.741,133.519,388.741,138.095z M378.397,132.826
		c-0.953,0.873-1.783,2.762-1.783,4.658c0,1.205,0.141,2.332,0.434,3.238c0.912,2.729,2.988,4.041,4.727,4.041
		c0.408,0,1.211-0.182,2.229-1.199c0.908-0.977,1.641-3.24,1.641-4.803c0-1.893-0.439-3.971-1.82-5.574
		c-0.801-0.877-2.115-1.42-3.059-1.42C379.993,131.767,379.157,132.169,378.397,132.826z"/>
</g>
<g>
</g>
<g>
</g>
<g>
</g>
<g>
</g>
<g>
</g>
<g>
</g>
</svg>
