<?xml version="1.0" encoding="utf-8"?>
<!-- Generator: Adobe Illustrator 16.0.0, SVG Export Plug-In . SVG Version: 6.00 Build 0)  -->
<!DOCTYPE svg PUBLIC "-//W3C//DTD SVG 1.1//EN" "http://www.w3.org/Graphics/SVG/1.1/DTD/svg11.dtd">
<svg version="1.1" id="Layer_1" xmlns="http://www.w3.org/2000/svg" xmlns:xlink="http://www.w3.org/1999/xlink" x="0px" y="0px"
	 width="60px" height="60px" viewBox="0 0 60 60" enable-background="new 0 0 60 60" xml:space="preserve">
<path fill="#FFFFFF" d="M39.009,29.691c-1.522-1.412-2.742-2.632-4.059-3.736c-0.925-0.775-1.739-1.651-2.622-2.464
	c-0.354-0.326-0.632-0.692-0.201-1.152c0.464-0.494,0.905-0.369,1.363,0.051c2.623,2.407,5.241,4.819,7.887,7.201
	c0.75,0.675,0.812,1.211,0.046,1.94c-2.638,2.509-5.234,5.059-7.839,7.602c-0.456,0.446-0.917,0.707-1.442,0.149
	c-0.552-0.584-0.021-0.938,0.336-1.306c2.093-2.154,4.188-4.305,6.312-6.484c-0.168-0.146-0.513-0.022-0.813-0.022
	c-5.896-0.009-11.793-0.006-17.689-0.006c-0.226,0-0.452-0.013-0.675,0.002c-0.728,0.05-1.537-0.071-1.577-0.874
	c-0.044-0.893,0.812-0.903,1.511-0.903c1.877,0.003,3.755,0.001,5.633,0.001c4.131,0,8.263,0,12.395,0
	C37.935,29.691,38.299,29.691,39.009,29.691z"/>
<path fill="none" stroke="#FFFFFF" stroke-width="2" stroke-miterlimit="10" d="M30,52.435C17.629,52.435,7.565,42.371,7.565,30
	C7.565,17.629,17.629,7.565,30,7.565c12.371,0,22.435,10.064,22.435,22.435C52.435,42.371,42.371,52.435,30,52.435z"/>
</svg>
