<?xml version="1.0" encoding="utf-8"?>
<!-- Generator: Adobe Illustrator 16.0.0, SVG Export Plug-In . SVG Version: 6.00 Build 0)  -->
<!DOCTYPE svg PUBLIC "-//W3C//DTD SVG 1.1//EN" "http://www.w3.org/Graphics/SVG/1.1/DTD/svg11.dtd" [
	<!ENTITY ns_flows "http://ns.adobe.com/Flows/1.0/">
	<!ENTITY ns_extend "http://ns.adobe.com/Extensibility/1.0/">
	<!ENTITY ns_ai "http://ns.adobe.com/AdobeIllustrator/10.0/">
	<!ENTITY ns_graphs "http://ns.adobe.com/Graphs/1.0/">
]>
<svg version="1.1" id="Layer_1" xmlns:x="&ns_extend;" xmlns:i="&ns_ai;" xmlns:graph="&ns_graphs;"
	 xmlns="http://www.w3.org/2000/svg" xmlns:xlink="http://www.w3.org/1999/xlink" xmlns:a="http://ns.adobe.com/AdobeSVGViewerExtensions/3.0/"
	 x="0px" y="0px" width="60px" height="60px" viewBox="0 0 60 60" enable-background="new 0 0 60 60" xml:space="preserve">
<path fill-rule="evenodd" clip-rule="evenodd" d="M31.385,41.15c1.748-1.885,3.258-3.394,4.624-5.023
	c0.959-1.144,2.044-2.153,3.05-3.245c0.404-0.439,0.857-0.782,1.425-0.249c0.612,0.574,0.458,1.12-0.063,1.688
	c-2.98,3.245-5.965,6.486-8.912,9.761c-0.836,0.928-1.5,1.004-2.402,0.056c-3.105-3.265-6.261-6.479-9.408-9.702
	c-0.553-0.564-0.875-1.135-0.186-1.785c0.724-0.683,1.162-0.026,1.617,0.415c2.667,2.59,5.328,5.185,8.026,7.812
	c0.181-0.208,0.027-0.634,0.027-1.006c0.011-7.298,0.008-14.596,0.008-21.894c0-0.279,0.016-0.559-0.003-0.836
	c-0.061-0.9,0.089-1.902,1.082-1.951c1.105-0.055,1.119,1.005,1.118,1.87c-0.003,2.324-0.001,4.648-0.001,6.972
	c0,5.113,0,10.227,0,15.34C31.385,39.821,31.385,40.272,31.385,41.15z"/>
<path fill="none" stroke="#000000" stroke-width="2" stroke-miterlimit="10" d="M30,57.768C14.689,57.768,2.232,45.312,2.232,30
	C2.232,14.689,14.689,2.232,30,2.232c15.313,0,27.768,12.457,27.768,27.768C57.768,45.312,45.312,57.768,30,57.768z"/>
</svg>
